<svg width="182" height="170" viewBox="0 0 182 170" fill="none" xmlns="http://www.w3.org/2000/svg">
<path d="M91 170C141.258 170 182 146.467 182 117.438C182 88.4084 141.258 64.8755 91 64.8755C40.7421 64.8755 0 88.4084 0 117.438C0 146.467 40.7421 170 91 170Z" fill="#F0F0F0"/>
<path d="M72.1696 157.267C89.5004 157.267 103.55 149.153 103.55 139.143C103.55 129.134 89.5004 121.02 72.1696 121.02C54.8388 121.02 40.7895 129.134 40.7895 139.143C40.7895 149.153 54.8388 157.267 72.1696 157.267Z" fill="#E0E0E0"/>
<path d="M161.408 116.468L157.727 114.342C157.727 114.342 156.827 106.459 157.426 100.354C158.268 91.7748 163.807 81.4493 170.412 83.8761C177.017 86.3029 167.384 95.0362 165.24 102.313C163.096 109.589 161.408 116.468 161.408 116.468Z" fill="#3499C5"/>
<path opacity="0.15" d="M161.408 116.468L157.727 114.342C157.727 114.342 156.827 106.459 157.426 100.354C158.268 91.7748 163.807 81.4493 170.412 83.8761C177.017 86.3029 167.384 95.0362 165.24 102.313C163.096 109.589 161.408 116.468 161.408 116.468Z" fill="black"/>
<path d="M159.473 115.575C159.532 115.572 159.587 115.546 159.627 115.503C159.667 115.459 159.688 115.402 159.686 115.343C159.04 96.2805 168.527 86.6892 168.62 86.5965C168.662 86.5545 168.685 86.4975 168.685 86.4381C168.685 86.3786 168.662 86.3217 168.62 86.2796C168.599 86.2589 168.575 86.2425 168.548 86.2313C168.521 86.2201 168.492 86.2144 168.463 86.2144C168.434 86.2144 168.405 86.2201 168.379 86.2313C168.352 86.2425 168.327 86.2589 168.307 86.2796C168.207 86.3724 158.585 96.1027 159.237 115.359C159.238 115.388 159.245 115.418 159.258 115.445C159.27 115.472 159.288 115.496 159.31 115.516C159.332 115.536 159.358 115.552 159.386 115.562C159.414 115.572 159.443 115.577 159.473 115.575Z" fill="white"/>
<path d="M163.722 117.793L161.103 116.282C161.103 116.282 160.655 110.872 163.309 104.303C165.626 98.5835 171.343 93.8343 174.224 94.8313C177.106 95.8283 177.033 97.8725 175.627 100.017C174.221 102.162 165.68 107.267 163.722 117.793Z" fill="#3499C5"/>
<path d="M162.339 117.221C162.398 117.22 162.455 117.196 162.496 117.154C162.538 117.113 162.562 117.056 162.563 116.997C162.509 104.94 173.823 96.7944 173.939 96.7132C173.963 96.6967 173.983 96.6754 173.999 96.6507C174.015 96.626 174.025 96.5983 174.03 96.5694C174.035 96.5405 174.033 96.511 174.026 96.4825C174.019 96.4541 174.007 96.4274 173.989 96.4041C173.955 96.3564 173.903 96.324 173.845 96.3139C173.788 96.3038 173.728 96.3167 173.68 96.35C173.564 96.4311 162.065 104.716 162.115 116.997C162.115 117.056 162.139 117.113 162.181 117.155C162.223 117.198 162.28 117.221 162.339 117.221Z" fill="white"/>
<path d="M25.2037 111.734L28.6028 109.438C28.6028 109.438 30.0977 100.55 28.7071 92.7098C26.7526 81.712 19.1548 78.0563 16.451 79.2156C13.7471 80.3749 13.1677 83.648 18.2162 89.9236C21.2097 93.614 25.0994 101.493 25.2037 111.734Z" fill="#3499C5"/>
<g opacity="0.15">
<path d="M25.2037 111.734L28.6028 109.438C28.6028 109.438 30.0977 100.55 28.7071 92.7098C26.7526 81.712 19.1548 78.0563 16.451 79.2156C13.7471 80.3749 13.1677 83.648 18.2162 89.9236C21.2097 93.614 25.0994 101.493 25.2037 111.734Z" fill="black"/>
</g>
<path d="M26.3703 107.328H26.3355C26.3008 107.326 26.2669 107.317 26.2361 107.301C26.2053 107.284 26.1783 107.262 26.1567 107.235C26.1352 107.207 26.1197 107.176 26.1113 107.142C26.1028 107.108 26.1016 107.073 26.1076 107.039C27.3359 96.6862 22.9673 85.4488 18.2124 80.9777C18.1666 80.9314 18.1409 80.869 18.1409 80.8039C18.1409 80.7387 18.1666 80.6763 18.2124 80.63C18.235 80.6068 18.2621 80.5884 18.2919 80.5759C18.3218 80.5633 18.3538 80.5569 18.3862 80.5569C18.4185 80.5569 18.4506 80.5633 18.4804 80.5759C18.5103 80.5884 18.5373 80.6068 18.56 80.63C23.4037 85.1821 27.8535 96.605 26.6097 107.108C26.6025 107.167 26.5744 107.222 26.5305 107.262C26.4866 107.303 26.4298 107.326 26.3703 107.328Z" fill="white"/>
<path d="M16.3042 117.739C15.7634 118.064 14.1875 116.893 13.751 116.611C13.0029 116.122 12.3936 115.448 11.9819 114.655C11.52 113.756 11.3486 112.735 11.4914 111.734C11.5705 111.211 11.6853 110.695 11.8351 110.188C11.9703 109.682 12.1055 109.176 12.2214 108.666C12.3927 108.169 12.4585 107.643 12.4145 107.12C12.2639 106.088 11.333 105.381 10.4832 104.774C9.54844 104.098 8.55188 103.205 8.55188 101.961C8.59953 100.983 8.97355 100.05 9.61411 99.3101C10.1935 98.5372 10.8888 97.8649 11.4102 97.0572C11.818 96.4976 12.0261 95.8172 12.0012 95.1251C11.9341 94.6984 11.7817 94.2897 11.5532 93.9233C11.0974 93.1195 10.5064 92.3775 10.1858 91.5235C9.86518 90.6695 9.88835 89.572 10.572 88.9344C11.1167 88.4127 11.9471 88.3277 12.7004 88.3625C13.4101 88.4332 14.0957 88.6588 14.7089 89.0233C16.7059 90.086 17.8802 92.4046 19.993 93.2122C20.808 93.5214 21.6965 93.5755 22.5424 93.7841C23.3883 93.9928 24.2612 94.4063 24.6668 95.1753C25.4664 96.7017 24.072 98.6261 24.6437 100.245C25.1535 101.683 26.575 102.208 27.3784 103.495C27.7045 104.067 27.8398 104.727 27.7647 105.381C27.7193 106.484 27.4719 107.57 27.0346 108.584C26.5317 109.636 25.9641 110.656 25.3351 111.637C25.3351 111.637 16.3853 117.689 16.3042 117.739Z" fill="#3499C5"/>
<path d="M21.5265 114.535C21.494 114.535 21.462 114.528 21.4322 114.515C21.4024 114.502 21.3754 114.484 21.3528 114.46C21.3302 114.437 21.3124 114.409 21.3005 114.379C21.2885 114.349 21.2826 114.317 21.2831 114.284C21.4994 104.5 16.6866 93.8033 13.2797 90.7119C13.2313 90.6682 13.2021 90.6071 13.1985 90.542C13.1949 90.4768 13.2171 90.4129 13.2604 90.3641C13.2831 90.3409 13.3101 90.3226 13.34 90.31C13.3698 90.2975 13.4019 90.291 13.4342 90.291C13.4666 90.291 13.4987 90.2975 13.5285 90.31C13.5584 90.3226 13.5854 90.3409 13.6081 90.3641C17.0844 93.4942 21.9939 104.376 21.7737 114.296C21.7732 114.328 21.7664 114.359 21.7537 114.389C21.741 114.418 21.7227 114.445 21.6997 114.467C21.6767 114.489 21.6496 114.507 21.6199 114.518C21.5902 114.53 21.5584 114.536 21.5265 114.535Z" fill="white"/>
<path d="M19.7226 102.613C19.6998 102.619 19.6759 102.619 19.6531 102.613C16.4935 101.702 12.5768 101.609 12.5381 101.605C12.5058 101.605 12.474 101.598 12.4444 101.585C12.4148 101.572 12.3881 101.553 12.3658 101.53C12.3435 101.507 12.3261 101.479 12.3145 101.449C12.303 101.419 12.2976 101.387 12.2986 101.354C12.298 101.322 12.3042 101.289 12.3168 101.259C12.3293 101.229 12.348 101.202 12.3716 101.179C12.3952 101.157 12.4232 101.139 12.4539 101.128C12.4845 101.117 12.5172 101.113 12.5497 101.115C12.5883 101.115 16.5669 101.211 19.7883 102.138C19.8506 102.157 19.9029 102.2 19.934 102.257C19.9651 102.314 19.9724 102.381 19.9544 102.444C19.9394 102.493 19.9086 102.536 19.8669 102.567C19.8251 102.598 19.7745 102.614 19.7226 102.613Z" fill="white"/>
<path d="M110.761 105.006L109.297 104.16C109.053 104.001 108.85 103.788 108.705 103.536C108.559 103.284 108.475 103.001 108.459 102.711V41.8402C108.475 41.5501 108.559 41.2679 108.704 41.0162C108.849 40.7645 109.051 40.5504 109.293 40.3911L149.986 16.8883C150.246 16.7569 150.532 16.6885 150.823 16.6885C151.113 16.6885 151.4 16.7569 151.659 16.8883L153.123 17.7346C153.367 17.8931 153.57 18.1069 153.716 18.3587C153.861 18.6105 153.945 18.8932 153.961 19.1837V80.0543C153.945 80.3444 153.861 80.6266 153.716 80.8783C153.572 81.13 153.37 81.3441 153.127 81.5034L112.434 105.01C112.175 105.142 111.888 105.21 111.597 105.209C111.306 105.209 111.02 105.139 110.761 105.006Z" fill="#455A64"/>
<path d="M153.961 19.0485C153.903 18.6157 153.552 18.4572 153.131 18.7007L112.434 42.2073C112.188 42.3618 111.985 42.5757 111.843 42.8294L108.703 41.0171C108.843 40.7614 109.046 40.546 109.293 40.3911L149.986 16.8883C150.246 16.7569 150.532 16.6885 150.823 16.6885C151.113 16.6885 151.4 16.7569 151.659 16.8883L153.123 17.7346C153.349 17.8802 153.541 18.0731 153.686 18.2998C153.83 18.5266 153.924 18.782 153.961 19.0485Z" fill="#455A64"/>
<path d="M112.291 105.076C112.044 105.176 111.778 105.222 111.511 105.211C111.245 105.199 110.984 105.131 110.746 105.01L109.278 104.16C109.035 104.001 108.833 103.786 108.688 103.535C108.543 103.283 108.46 103.001 108.444 102.711V41.8402C108.454 41.5496 108.537 41.2663 108.687 41.0171L111.827 42.8295C111.675 43.079 111.59 43.364 111.58 43.6564V104.527C111.596 105.006 111.897 105.226 112.291 105.076Z" fill="#263238"/>
<path d="M111.596 43.664V104.527C111.596 105.06 111.982 105.277 112.434 105.01L153.127 81.5033C153.37 81.344 153.572 81.1299 153.716 80.8782C153.861 80.6265 153.945 80.3442 153.961 80.0542V19.1836C153.961 18.6503 153.575 18.4339 153.127 18.7006L112.434 42.2072C112.189 42.3664 111.985 42.5814 111.839 42.8347C111.694 43.0879 111.61 43.3722 111.596 43.664Z" fill="#37474F"/>
<path d="M102.094 66.8501C101.568 66.5371 99.1309 65.1498 99.0034 65.0764C98.9041 65.0171 98.8193 64.9363 98.7554 64.8398C98.6915 64.7434 98.65 64.6338 98.6341 64.5192C98.6181 64.4046 98.6281 64.2879 98.6633 64.1776C98.6985 64.0674 98.7579 63.9665 98.8373 63.8823L108.459 53.5569L111.596 55.3576L101.978 65.6908C101.902 65.7713 101.845 65.867 101.809 65.9715C101.774 66.0761 101.761 66.187 101.772 66.2968C101.783 66.4067 101.817 66.5129 101.873 66.6083C101.928 66.7038 102.004 66.7862 102.094 66.8501Z" fill="#455A64"/>
<path d="M111.596 55.3691L101.978 65.6907C101.871 65.8048 101.801 65.9486 101.778 66.1032C101.754 66.2577 101.778 66.4158 101.846 66.5564C101.915 66.697 102.024 66.8137 102.16 66.891C102.296 66.9682 102.452 67.0024 102.607 66.9891L111.596 66.2472V55.3691Z" fill="#37474F"/>
<path d="M132.778 36.7856C137.522 34.0458 141.365 36.2678 141.365 41.7474C141.365 47.227 137.522 53.8852 132.778 56.625C128.035 59.3648 124.192 57.1428 124.192 51.6671C124.192 46.1914 128.035 39.5254 132.778 36.7856Z" fill="#3499C5"/>
<path d="M132.717 41.0983C134.262 40.2095 135.502 40.9283 135.502 42.7059C135.449 43.6722 135.169 44.6124 134.685 45.4503C134.202 46.2883 133.527 47.0003 132.717 47.5285C131.172 48.4173 129.928 47.6986 129.928 45.921C129.981 44.9544 130.261 44.0139 130.746 43.1759C131.23 42.338 131.905 41.6262 132.717 41.0983Z" fill="white"/>
<path d="M138.209 50.5734C138.209 47.6559 136.158 46.4695 133.632 47.9302L132.052 48.8422C129.526 50.3029 127.475 53.8658 127.475 56.7756V57.5756C127.952 57.7281 128.45 57.805 128.951 57.8035C130.306 57.7575 131.625 57.3578 132.778 56.6443C134.974 55.2912 136.832 53.4539 138.209 51.2729V50.5734Z" fill="white"/>
<path d="M127.34 83.7486L138.217 77.4652C138.68 77.1986 139.055 77.415 139.055 77.9483V81.4532C139.039 81.7437 138.955 82.0264 138.81 82.2782C138.664 82.53 138.461 82.7439 138.217 82.9023L127.34 89.1857C126.876 89.4523 126.502 89.2359 126.502 88.7026V85.1977C126.517 84.9072 126.601 84.6245 126.747 84.3727C126.893 84.1209 127.096 83.907 127.34 83.7486Z" fill="#3499C5"/>
<path d="M122.013 75.9194L143.532 63.484C144.084 63.1633 144.536 63.4222 144.536 64.0637V65.366C144.517 65.7144 144.417 66.0535 144.242 66.3557C144.068 66.6578 143.824 66.9145 143.532 67.1049L122.002 79.5402C121.449 79.861 121.001 79.6021 121.001 78.9606V77.6699C121.019 77.3187 121.12 76.9767 121.296 76.6723C121.472 76.3679 121.718 76.1098 122.013 75.9194Z" fill="#FAFAFA"/>
<path d="M124.532 66.9194C124.825 66.7494 125.053 66.7223 125.215 66.8421C125.377 66.9619 125.459 67.2285 125.459 67.6382C125.467 68.012 125.383 68.3822 125.215 68.7163C125.063 69.0183 124.826 69.2684 124.532 69.4351L123.952 69.7713V71.0194C123.951 71.0624 123.941 71.1046 123.921 71.1431C123.908 71.1781 123.883 71.2078 123.852 71.2281L123.558 71.3981C123.548 71.4057 123.536 71.4097 123.523 71.4097C123.511 71.4097 123.499 71.4057 123.489 71.3981C123.468 71.372 123.458 71.3387 123.462 71.3054V67.6923C123.461 67.6495 123.471 67.6073 123.489 67.5686C123.503 67.5342 123.527 67.5048 123.558 67.4836L124.532 66.9194ZM123.952 69.0718L124.512 68.7472C124.648 68.6709 124.762 68.5619 124.844 68.4303C124.932 68.2751 124.975 68.0985 124.968 67.9203C124.968 67.7116 124.926 67.5918 124.844 67.557C124.787 67.5431 124.727 67.5424 124.67 67.5552C124.612 67.5679 124.558 67.5936 124.512 67.6304L123.952 67.955V69.0718Z" fill="#FAFAFA"/>
<path d="M127.077 65.4473C127.116 65.4241 127.147 65.4241 127.166 65.4473C127.191 65.482 127.208 65.5215 127.216 65.5633L128.108 68.5851C128.108 68.5851 128.108 68.6083 128.108 68.6199C128.108 68.663 128.097 68.7053 128.077 68.7436C128.064 68.7785 128.04 68.8083 128.008 68.8286L127.745 68.9793C127.699 69.0063 127.664 69.0102 127.645 68.9793C127.626 68.9599 127.613 68.9359 127.606 68.9097L127.448 68.3803L126.289 69.045L126.135 69.756C126.124 69.7945 126.109 69.832 126.092 69.8681C126.073 69.9152 126.037 69.9537 125.992 69.9763L125.729 70.127C125.719 70.1352 125.707 70.1397 125.694 70.1397C125.682 70.1397 125.669 70.1352 125.659 70.127C125.639 70.102 125.63 70.0701 125.632 70.0381C125.63 70.024 125.63 70.0097 125.632 69.9956L126.521 65.9458C126.532 65.8863 126.548 65.828 126.571 65.7719C126.59 65.7313 126.621 65.6975 126.66 65.6753L127.077 65.4473ZM127.278 67.7891L126.892 66.425L126.505 68.2489L127.278 67.7891Z" fill="#FAFAFA"/>
<path d="M129.46 64.0135C129.59 63.9319 129.737 63.8828 129.889 63.8705C129.997 63.8608 130.105 63.8851 130.198 63.94C130.283 63.9951 130.349 64.0746 130.387 64.168C130.43 64.2632 130.453 64.3655 130.457 64.4695C130.46 64.5124 130.45 64.5552 130.43 64.5931C130.416 64.6281 130.392 64.6578 130.36 64.6781L130.105 64.825C130.063 64.8482 130.032 64.852 130.013 64.825C129.989 64.8092 129.969 64.788 129.955 64.7631C129.939 64.7284 129.917 64.6971 129.889 64.6712C129.861 64.6453 129.828 64.6253 129.793 64.6124C129.675 64.5956 129.555 64.6262 129.46 64.6974C129.398 64.7379 129.338 64.7831 129.283 64.8327C129.225 64.8855 129.175 64.9452 129.132 65.0105C129.091 65.0734 129.057 65.1408 129.032 65.2114C129.009 65.2786 128.997 65.3491 128.997 65.4201C128.992 65.4851 129.004 65.5503 129.032 65.6094C129.043 65.6302 129.06 65.6477 129.08 65.6605C129.101 65.6733 129.124 65.681 129.147 65.6828C129.219 65.6953 129.292 65.6953 129.364 65.6828L129.7 65.6094C129.825 65.5723 129.956 65.5566 130.086 65.5631C130.179 65.5628 130.27 65.5926 130.345 65.6481C130.416 65.7076 130.467 65.787 130.492 65.8761C130.53 66.0012 130.546 66.1318 130.542 66.2625C130.542 66.4351 130.517 66.6069 130.468 66.7726C130.421 66.943 130.353 67.1066 130.264 67.2595C130.17 67.4162 130.059 67.5614 129.932 67.6923C129.802 67.8271 129.653 67.9429 129.491 68.0362C129.372 68.1087 129.242 68.1597 129.105 68.1869C128.994 68.2083 128.879 68.199 128.773 68.1599C128.676 68.115 128.596 68.0406 128.545 67.9473C128.482 67.8281 128.447 67.6958 128.444 67.5609C128.444 67.5169 128.453 67.4734 128.472 67.4334C128.489 67.4005 128.514 67.3725 128.545 67.3522L128.8 67.2054C128.838 67.1822 128.869 67.1745 128.893 67.1861C128.916 67.1977 128.931 67.217 128.947 67.2518C128.963 67.2915 128.983 67.3292 129.008 67.3638C129.032 67.3975 129.066 67.4231 129.105 67.4372C129.156 67.449 129.209 67.449 129.259 67.4372C129.341 67.4179 129.42 67.3853 129.491 67.3406C129.566 67.2979 129.637 67.2488 129.704 67.1938C129.834 67.091 129.937 66.9584 130.005 66.8074C130.036 66.7299 130.052 66.6473 130.051 66.5639C130.055 66.5336 130.052 66.503 130.044 66.4737C130.035 66.4445 130.021 66.4173 130.001 66.3939C129.98 66.3755 129.956 66.3618 129.929 66.3538C129.902 66.3458 129.874 66.3436 129.847 66.3475C129.759 66.3511 129.672 66.3654 129.588 66.39C129.487 66.4132 129.371 66.4403 129.236 66.4634C129.133 66.4893 129.026 66.4972 128.92 66.4866C128.836 66.4812 128.757 66.4471 128.696 66.39C128.629 66.3246 128.582 66.2415 128.56 66.1504C128.529 66.0162 128.515 65.8786 128.518 65.7408C128.518 65.5707 128.542 65.4014 128.591 65.2385C128.637 65.0708 128.705 64.9097 128.792 64.7593C128.876 64.6099 128.977 64.4711 129.093 64.3458C129.199 64.2182 129.323 64.1063 129.46 64.0135Z" fill="#FAFAFA"/>
<path d="M131.998 62.5528C132.126 62.4687 132.274 62.4182 132.427 62.4059C132.535 62.3968 132.642 62.4211 132.736 62.4755C132.818 62.532 132.883 62.6112 132.921 62.7035C132.963 62.7986 132.987 62.9009 132.991 63.0049C132.995 63.048 132.986 63.0913 132.964 63.1286C132.95 63.1635 132.926 63.1933 132.894 63.2136L132.639 63.3604C132.601 63.3836 132.57 63.3913 132.547 63.3604C132.522 63.3449 132.503 63.3219 132.493 63.2947C132.457 63.2269 132.398 63.1746 132.326 63.1479C132.269 63.1394 132.21 63.1426 132.154 63.1572C132.097 63.1718 132.044 63.1975 131.998 63.2329C131.934 63.2723 131.873 63.3176 131.817 63.3682C131.76 63.421 131.711 63.4808 131.67 63.5459C131.627 63.6079 131.593 63.6756 131.569 63.7469C131.545 63.8139 131.532 63.8843 131.531 63.9555C131.526 64.0206 131.538 64.0857 131.565 64.1449C131.577 64.1656 131.594 64.1832 131.614 64.196C131.635 64.2088 131.658 64.2164 131.681 64.2183C131.753 64.2308 131.826 64.2308 131.898 64.2183L132.234 64.1449C132.359 64.1099 132.49 64.0942 132.62 64.0985C132.713 64.0977 132.804 64.1275 132.879 64.1835C132.949 64.2439 133.002 64.3229 133.029 64.4115C133.064 64.5374 133.079 64.6676 133.076 64.798C133.076 64.9706 133.051 65.1423 133.002 65.308C132.955 65.4784 132.886 65.6421 132.798 65.7949C132.705 65.9531 132.593 66.0997 132.465 66.2316C132.335 66.3631 132.188 66.4774 132.029 66.5717C131.91 66.6439 131.779 66.6948 131.643 66.7224C131.533 66.7434 131.419 66.7341 131.314 66.6953C131.216 66.6518 131.135 66.5772 131.083 66.4828C131.019 66.3639 130.986 66.2312 130.986 66.0964C130.982 66.0533 130.991 66.0099 131.013 65.9727C131.027 65.9377 131.051 65.908 131.083 65.8877L131.338 65.7408C131.376 65.7177 131.411 65.7099 131.43 65.7215C131.444 65.7276 131.456 65.7367 131.465 65.7481C131.474 65.7595 131.481 65.7729 131.484 65.7872C131.502 65.8262 131.523 65.8637 131.546 65.8993C131.572 65.9332 131.607 65.9588 131.647 65.9727C131.697 65.9844 131.75 65.9844 131.801 65.9727C131.883 65.9534 131.961 65.9207 132.033 65.8761C132.106 65.8324 132.176 65.7833 132.241 65.7293C132.309 65.6763 132.369 65.6138 132.419 65.5438C132.469 65.477 132.511 65.4043 132.543 65.3274C132.574 65.2499 132.589 65.1673 132.589 65.0839C132.593 65.0536 132.59 65.023 132.582 64.9937C132.573 64.9645 132.558 64.9373 132.539 64.9139C132.518 64.8955 132.493 64.8818 132.467 64.8738C132.44 64.8658 132.412 64.8636 132.384 64.8675C132.298 64.8728 132.213 64.887 132.129 64.91C132.029 64.9332 131.909 64.9603 131.778 64.9834C131.673 65.0093 131.565 65.0172 131.457 65.0066C131.374 65.0022 131.294 64.9679 131.233 64.91C131.168 64.8442 131.122 64.7611 131.102 64.6704C131.068 64.538 131.052 64.4014 131.056 64.2647C131.057 64.0934 131.082 63.9231 131.129 63.7585C131.177 63.5913 131.244 63.4305 131.33 63.2793C131.413 63.1289 131.516 62.99 131.635 62.8658C131.739 62.7432 131.862 62.6376 131.998 62.5528Z" fill="#FAFAFA"/>
<path d="M134.814 63.0358L134.501 64.8868C134.492 64.9424 134.476 64.9969 134.455 65.0491C134.44 65.0907 134.411 65.1261 134.374 65.1495L134.08 65.3196C134.041 65.3428 134.014 65.3428 133.995 65.3196C133.969 65.2878 133.954 65.2485 133.953 65.2075L133.489 61.9422C133.489 61.9422 133.489 61.9112 133.489 61.8997C133.49 61.8567 133.501 61.8145 133.52 61.776C133.535 61.7416 133.559 61.7122 133.59 61.691L133.856 61.5364C133.878 61.5274 133.903 61.5274 133.926 61.5364C133.949 61.5364 133.964 61.5673 133.972 61.6292L134.277 63.8279L134.544 62.1779C134.551 62.1367 134.562 62.0966 134.578 62.0581C134.594 62.0092 134.627 61.9678 134.671 61.9422L134.968 61.7683C135.011 61.7451 135.042 61.7489 135.061 61.7683C135.078 61.7928 135.09 61.8204 135.096 61.8494L135.366 63.1903L135.671 60.6399C135.675 60.5897 135.69 60.5409 135.714 60.4969C135.732 60.468 135.756 60.4431 135.783 60.4235L136.05 60.2689C136.06 60.2614 136.072 60.2573 136.085 60.2573C136.097 60.2573 136.11 60.2614 136.12 60.2689C136.131 60.2816 136.139 60.2963 136.144 60.3122C136.15 60.3281 136.152 60.3449 136.15 60.3617C136.152 60.3771 136.152 60.3926 136.15 60.408L135.687 64.2066C135.679 64.2622 135.665 64.3167 135.644 64.3689C135.627 64.4102 135.597 64.4452 135.559 64.4694L135.262 64.6394C135.227 64.6588 135.2 64.6588 135.181 64.6394C135.161 64.6039 135.146 64.5664 135.135 64.5274L134.814 63.0358Z" fill="#FAFAFA"/>
<path d="M136.622 61.3973C136.63 61.1831 136.656 60.9698 136.699 60.7597C136.743 60.5544 136.81 60.3547 136.9 60.1646C136.985 59.9798 137.094 59.807 137.224 59.6507C137.356 59.4956 137.514 59.3648 137.692 59.2642C137.828 59.1719 137.987 59.1197 138.151 59.1135C138.274 59.1149 138.392 59.1633 138.48 59.2488C138.573 59.354 138.641 59.4797 138.677 59.6159C138.726 59.7934 138.754 59.9764 138.758 60.1608C138.758 60.2303 138.758 60.3076 138.758 60.3926C138.758 60.4776 138.758 60.5665 138.758 60.6592C138.758 60.752 138.758 60.8409 138.758 60.9259C138.758 61.0109 138.758 61.0921 138.758 61.1655C138.749 61.3785 138.724 61.5904 138.68 61.7992C138.636 62.004 138.57 62.2034 138.483 62.3943C138.396 62.5786 138.285 62.7512 138.155 62.9083C138.023 63.0619 137.866 63.1925 137.692 63.2947C137.552 63.3864 137.391 63.4385 137.224 63.4454C137.164 63.4466 137.104 63.4356 137.049 63.413C136.993 63.3905 136.942 63.3568 136.9 63.314C136.799 63.2058 136.73 63.0723 136.699 62.9276C136.653 62.7494 136.627 62.5667 136.622 62.3827C136.622 62.3132 136.622 62.2359 136.622 62.1509C136.622 62.0659 136.622 61.977 136.622 61.8842C136.622 61.7915 136.622 61.7065 136.622 61.6176C136.622 61.5287 136.618 61.4669 136.622 61.3973ZM138.267 60.4738C138.276 60.3792 138.265 60.2839 138.236 60.1936C138.207 60.1033 138.159 60.0198 138.097 59.9482C137.997 59.8593 137.858 59.8632 137.692 59.9482C137.511 60.0542 137.368 60.2135 137.282 60.4042C137.173 60.6295 137.115 60.8763 137.112 61.1268C137.112 61.2698 137.112 61.4282 137.112 61.6021C137.112 61.776 137.112 61.9306 137.112 62.0697C137.104 62.1643 137.114 62.2596 137.143 62.3499C137.173 62.4402 137.22 62.5237 137.282 62.5953C137.383 62.6803 137.522 62.6726 137.692 62.5759C137.869 62.4692 138.01 62.3117 138.097 62.1238C138.207 61.8999 138.265 61.6543 138.267 61.4051C138.267 61.2582 138.267 61.0998 138.267 60.9259C138.267 60.752 138.271 60.6129 138.267 60.4738Z" fill="#FAFAFA"/>
<path d="M140.442 57.7225C140.747 57.5486 140.975 57.5215 141.133 57.649C141.227 57.7525 141.297 57.8754 141.338 58.0091C141.378 58.1427 141.389 58.2837 141.369 58.4219C141.372 58.6844 141.332 58.9456 141.249 59.1948C141.171 59.4269 141.049 59.642 140.89 59.8285L141.392 60.9221C141.394 60.9401 141.394 60.9582 141.392 60.9762C141.392 61.011 141.384 61.0454 141.369 61.0767C141.358 61.1047 141.339 61.129 141.315 61.1462L141.006 61.324C140.956 61.351 140.921 61.3549 140.898 61.324C140.877 61.3037 140.86 61.2802 140.847 61.2544L140.372 60.2227L139.89 60.5009V61.807C139.89 61.8498 139.881 61.892 139.862 61.9307C139.847 61.9643 139.823 61.9935 139.793 62.0157L139.499 62.1857C139.49 62.1939 139.477 62.1984 139.465 62.1984C139.452 62.1984 139.44 62.1939 139.43 62.1857C139.419 62.1739 139.41 62.1599 139.405 62.1446C139.4 62.1293 139.398 62.113 139.399 62.0969V58.4837C139.4 58.4407 139.411 58.3985 139.43 58.3601C139.443 58.3251 139.468 58.2953 139.499 58.2751L140.442 57.7225ZM139.897 59.8015L140.442 59.5078C140.575 59.4334 140.689 59.3289 140.774 59.2025C140.864 59.0536 140.907 58.8814 140.898 58.7079C140.898 58.4992 140.855 58.3833 140.774 58.3601C140.656 58.3441 140.537 58.3746 140.442 58.4451L139.917 58.7465L139.897 59.8015Z" fill="#FAFAFA"/>
<path d="M143.03 56.2346C143.17 56.1431 143.33 56.0874 143.497 56.0723C143.618 56.0679 143.736 56.1109 143.826 56.1921C143.928 56.2998 143.999 56.4334 144.03 56.5786C144.082 56.7702 144.111 56.9674 144.115 57.1659C144.115 57.4364 144.115 57.7147 144.115 57.9968C144.107 58.2268 144.079 58.4557 144.03 58.6807C143.986 58.8898 143.919 59.0933 143.829 59.2874C143.743 59.4657 143.634 59.632 143.505 59.7821C143.376 59.9357 143.222 60.0664 143.049 60.1685L142.134 60.667C142.124 60.6752 142.112 60.6797 142.099 60.6797C142.086 60.6797 142.074 60.6752 142.064 60.667C142.053 60.6553 142.044 60.6413 142.039 60.626C142.034 60.6106 142.032 60.5943 142.033 60.5781V56.965C142.034 56.922 142.045 56.8798 142.064 56.8413C142.078 56.8064 142.102 56.7766 142.134 56.7563L143.03 56.2346ZM143.625 57.4364C143.623 57.3318 143.607 57.2278 143.578 57.1273C143.56 57.0512 143.522 56.9816 143.466 56.9264C143.442 56.9021 143.413 56.8831 143.381 56.8704C143.349 56.8578 143.315 56.8518 143.281 56.8529C143.184 56.8594 143.091 56.8914 143.011 56.9457L142.524 57.2239V59.7434L143.03 59.4536C143.128 59.3966 143.215 59.3234 143.289 59.2372C143.361 59.1524 143.422 59.059 143.47 58.959C143.518 58.8525 143.555 58.7411 143.578 58.6266C143.605 58.5073 143.621 58.3857 143.625 58.2634C143.636 57.9813 143.636 57.7069 143.625 57.4364Z" fill="#FAFAFA"/>
<path d="M89.988 0.148113C90.6548 0.296533 91.2972 0.538515 91.8962 0.866874C92.4698 1.17535 92.9838 1.58362 93.4142 2.07254C93.826 2.54285 94.1316 3.09642 94.3103 3.69555C94.4926 4.33688 94.5059 5.01448 94.349 5.66248C94.2454 6.17624 94.0419 6.66466 93.7502 7.10001C93.4839 7.47228 93.1667 7.80529 92.8077 8.08927C92.4553 8.36306 92.0791 8.60489 91.6837 8.81189L90.5713 9.40313C90.2362 9.57799 89.9181 9.78368 89.6211 10.0176C89.3524 10.2238 89.1464 10.5007 89.0262 10.8175C88.9674 10.9622 88.8698 11.0879 88.7443 11.1807C88.6849 11.2269 88.6157 11.2589 88.5421 11.2743C88.4684 11.2897 88.3923 11.2881 88.3194 11.2696L86.6816 10.9064C86.6027 10.8898 86.528 10.8577 86.4616 10.8119C86.3953 10.7661 86.3388 10.7076 86.2953 10.6397C86.2491 10.5766 86.2184 10.5035 86.2056 10.4263C86.1929 10.3491 86.1985 10.27 86.2219 10.1953C86.3538 9.68789 86.5863 9.21216 86.9056 8.79644C87.197 8.4287 87.5345 8.1001 87.9099 7.81877C88.2757 7.55093 88.6633 7.31437 89.0687 7.1116C89.455 6.91452 89.8412 6.72517 90.1773 6.53581C90.4899 6.36772 90.7838 6.16694 91.0541 5.93685C91.2913 5.73821 91.4557 5.46633 91.5215 5.16399C91.5829 4.90144 91.5799 4.62791 91.5126 4.3668C91.4454 4.10569 91.3159 3.86476 91.1352 3.66463C90.6836 3.17128 90.0798 2.84342 89.4202 2.73334C88.1996 2.46283 87.1696 2.87374 86.3301 3.96605C86.2491 4.08528 86.147 4.18873 86.0288 4.27133C85.8955 4.33745 85.7415 4.34855 85.6001 4.30224L83.858 3.91581C83.7337 3.89179 83.624 3.81955 83.5529 3.71487C83.5148 3.65894 83.4893 3.59548 83.478 3.52881C83.4666 3.46213 83.4698 3.39379 83.4872 3.32844C83.6352 2.79147 83.9109 2.29829 84.2906 1.89092C84.7189 1.41849 85.2276 1.02595 85.7932 0.731624C86.4116 0.407949 87.0781 0.186125 87.767 0.0746913C88.5051 -0.0454153 89.2595 -0.0204771 89.988 0.148113ZM88.1378 12.5835C88.291 12.6194 88.4241 12.714 88.5086 12.8469C88.593 12.9797 88.6222 13.1404 88.5897 13.2945L88.1726 15.188C88.1585 15.2673 88.1278 15.3427 88.0825 15.4093C88.0372 15.4759 87.9784 15.5322 87.9099 15.5744C87.8453 15.619 87.772 15.6496 87.6949 15.6643C87.6177 15.6789 87.5383 15.6773 87.4619 15.6594L85.5923 15.2305C85.5128 15.2171 85.4372 15.1867 85.3705 15.1413C85.3038 15.096 85.2478 15.0368 85.2061 14.9677C85.1628 14.9025 85.1333 14.8291 85.1193 14.752C85.1054 14.6749 85.1073 14.5958 85.125 14.5195L85.546 12.626C85.582 12.4725 85.6763 12.339 85.809 12.2539C85.9417 12.1688 86.1022 12.1387 86.2567 12.17L88.1378 12.5835Z" fill="#3499C5"/>
<path d="M92.0506 18.2756C92.5158 18.201 92.989 18.1919 93.4566 18.2486C93.9033 18.3017 94.3373 18.4325 94.739 18.635C95.1216 18.8336 95.4584 19.11 95.7279 19.4465C95.9701 19.7759 96.1407 20.1524 96.2285 20.5517C96.3163 20.9511 96.3195 21.3644 96.2378 21.7651C96.1641 22.0731 96.0457 22.3687 95.8863 22.6423C95.7326 22.9084 95.5541 23.1594 95.3532 23.392C95.1562 23.6238 94.9669 23.8441 94.7931 24.0566C94.623 24.2546 94.4717 24.4681 94.3412 24.6942C94.2188 24.8925 94.157 25.1222 94.1635 25.355C94.1601 25.4639 94.1296 25.5702 94.0747 25.6642C94.0467 25.7075 94.0099 25.7444 93.9666 25.7724C93.9233 25.8004 93.8746 25.8188 93.8236 25.8265L92.6648 26.012C92.6107 26.0218 92.5551 26.0207 92.5014 26.0088C92.4476 25.9968 92.3968 25.9743 92.3519 25.9424C92.3063 25.9137 92.2681 25.8746 92.2406 25.8282C92.2131 25.7818 92.1969 25.7296 92.1936 25.6758C92.145 25.3162 92.1713 24.9504 92.2708 24.6015C92.3616 24.2926 92.4914 23.9965 92.6571 23.7204C92.8195 23.4555 93.0057 23.2059 93.2133 22.9746C93.418 22.7428 93.5996 22.5264 93.7773 22.3177C93.9359 22.1313 94.0732 21.9278 94.1867 21.711C94.2872 21.5244 94.3239 21.3099 94.291 21.1004C94.2619 20.9161 94.1888 20.7415 94.0779 20.5914C93.9669 20.4414 93.8214 20.3204 93.6536 20.2387C93.2384 20.038 92.7683 19.9809 92.3172 20.0764C91.9087 20.1362 91.5286 20.3209 91.2292 20.6052C90.9298 20.8896 90.7256 21.2596 90.6446 21.6646C90.622 21.762 90.5828 21.8548 90.5288 21.939C90.4599 22.0123 90.3664 22.0577 90.2661 22.0665L89.0455 22.2636C88.9597 22.28 88.8709 22.262 88.7983 22.2134C88.7611 22.1878 88.7298 22.1546 88.7065 22.1159C88.6832 22.0773 88.6684 22.0341 88.6631 21.9892C88.6268 21.6058 88.6865 21.2193 88.8369 20.8647C88.9897 20.4521 89.2146 20.07 89.5013 19.7363C89.8155 19.3709 90.1858 19.0579 90.5983 18.8089C91.0434 18.5389 91.5366 18.3578 92.0506 18.2756ZM94.0438 26.7191C94.097 26.7107 94.1513 26.7128 94.2037 26.7254C94.256 26.738 94.3054 26.7608 94.3489 26.7926C94.3944 26.8225 94.4331 26.8617 94.4624 26.9077C94.4917 26.9536 94.5109 27.0053 94.5189 27.0592L94.7352 28.3847C94.7519 28.4922 94.7256 28.602 94.662 28.6902C94.5984 28.7785 94.5025 28.8381 94.3953 28.8561L93.1013 29.0686C92.9939 29.0853 92.8842 29.0589 92.7961 28.9952C92.7513 28.9649 92.7134 28.9255 92.6848 28.8795C92.6562 28.8336 92.6375 28.7822 92.63 28.7286L92.4137 27.4031C92.4039 27.3499 92.4054 27.2953 92.418 27.2427C92.4307 27.1901 92.4542 27.1408 92.4871 27.0978C92.5174 27.053 92.5568 27.0151 92.6027 26.9864C92.6487 26.9578 92.7001 26.9392 92.7536 26.9317L94.0438 26.7191Z" fill="#3499C5"/>
<g opacity="0.2">
<path d="M92.0506 18.2756C92.5158 18.201 92.989 18.1919 93.4566 18.2486C93.9033 18.3017 94.3373 18.4325 94.739 18.635C95.1216 18.8336 95.4584 19.11 95.7279 19.4465C95.9701 19.7759 96.1407 20.1524 96.2285 20.5517C96.3163 20.9511 96.3195 21.3644 96.2378 21.7651C96.1641 22.0731 96.0457 22.3687 95.8863 22.6423C95.7326 22.9084 95.5541 23.1594 95.3532 23.392C95.1562 23.6238 94.9669 23.8441 94.7931 24.0566C94.623 24.2546 94.4717 24.4681 94.3412 24.6942C94.2188 24.8925 94.157 25.1222 94.1635 25.355C94.1601 25.4639 94.1296 25.5702 94.0747 25.6642C94.0467 25.7075 94.0099 25.7444 93.9666 25.7724C93.9233 25.8004 93.8746 25.8188 93.8236 25.8265L92.6648 26.012C92.6107 26.0218 92.5551 26.0207 92.5014 26.0088C92.4476 25.9968 92.3968 25.9743 92.3519 25.9424C92.3063 25.9137 92.2681 25.8746 92.2406 25.8282C92.2131 25.7818 92.1969 25.7296 92.1936 25.6758C92.145 25.3162 92.1713 24.9504 92.2708 24.6015C92.3616 24.2926 92.4914 23.9965 92.6571 23.7204C92.8195 23.4555 93.0057 23.2059 93.2133 22.9746C93.418 22.7428 93.5996 22.5264 93.7773 22.3177C93.9359 22.1313 94.0732 21.9278 94.1867 21.711C94.2872 21.5244 94.3239 21.3099 94.291 21.1004C94.2619 20.9161 94.1888 20.7415 94.0779 20.5914C93.9669 20.4414 93.8214 20.3204 93.6536 20.2387C93.2384 20.038 92.7683 19.9809 92.3172 20.0764C91.9087 20.1362 91.5286 20.3209 91.2292 20.6052C90.9298 20.8896 90.7256 21.2596 90.6446 21.6646C90.622 21.762 90.5828 21.8548 90.5288 21.939C90.4599 22.0123 90.3664 22.0577 90.2661 22.0665L89.0455 22.2636C88.9597 22.28 88.8709 22.262 88.7983 22.2134C88.7611 22.1878 88.7298 22.1546 88.7065 22.1159C88.6832 22.0773 88.6684 22.0341 88.6631 21.9892C88.6268 21.6058 88.6865 21.2193 88.8369 20.8647C88.9897 20.4521 89.2146 20.07 89.5013 19.7363C89.8155 19.3709 90.1858 19.0579 90.5983 18.8089C91.0434 18.5389 91.5366 18.3578 92.0506 18.2756ZM94.0438 26.7191C94.097 26.7107 94.1513 26.7128 94.2037 26.7254C94.256 26.738 94.3054 26.7608 94.3489 26.7926C94.3944 26.8225 94.4331 26.8617 94.4624 26.9077C94.4917 26.9536 94.5109 27.0053 94.5189 27.0592L94.7352 28.3847C94.7519 28.4922 94.7256 28.602 94.662 28.6902C94.5984 28.7785 94.5025 28.8381 94.3953 28.8561L93.1013 29.0686C92.9939 29.0853 92.8842 29.0589 92.7961 28.9952C92.7513 28.9649 92.7134 28.9255 92.6848 28.8795C92.6562 28.8336 92.6375 28.7822 92.63 28.7286L92.4137 27.4031C92.4039 27.3499 92.4054 27.2953 92.418 27.2427C92.4307 27.1901 92.4542 27.1408 92.4871 27.0978C92.5174 27.053 92.5568 27.0151 92.6027 26.9864C92.6487 26.9578 92.7001 26.9392 92.7536 26.9317L94.0438 26.7191Z" fill="black"/>
</g>
<path d="M102.974 20.3583C103.027 20.395 103.072 20.442 103.105 20.4964C103.139 20.5509 103.162 20.6118 103.171 20.6752C103.184 20.7381 103.183 20.8028 103.169 20.8653C103.155 20.9278 103.128 20.9868 103.09 21.0384L102.171 22.333C102.134 22.3857 102.087 22.4303 102.033 22.4642C101.978 22.4981 101.917 22.5205 101.854 22.5301C101.791 22.5424 101.727 22.5415 101.664 22.5275C101.602 22.5136 101.543 22.4868 101.491 22.4489L100.224 21.5485C100.171 21.5124 100.127 21.4655 100.093 21.4108C100.06 21.3562 100.039 21.2951 100.031 21.2317C100.019 21.1688 100.019 21.1041 100.033 21.0415C100.047 20.979 100.074 20.9201 100.112 20.8684L101.043 19.5739C101.118 19.4689 101.232 19.3979 101.359 19.3762C101.486 19.3545 101.617 19.3839 101.723 19.4579L102.974 20.3583ZM108.32 11.5902C108.782 11.9141 109.193 12.3048 109.541 12.7495C109.879 13.1632 110.141 13.6344 110.313 14.1407C110.474 14.6258 110.528 15.1398 110.472 15.6477C110.406 16.1894 110.201 16.7047 109.877 17.1432C109.636 17.4978 109.326 17.8001 108.965 18.032C108.648 18.231 108.303 18.3821 107.942 18.4803C107.59 18.5723 107.23 18.6344 106.868 18.6658L105.84 18.7585C105.532 18.7831 105.227 18.8362 104.929 18.9169C104.654 18.9795 104.402 19.1188 104.203 19.3188C104.113 19.4102 103.999 19.4745 103.874 19.5043C103.815 19.5213 103.752 19.5239 103.692 19.5118C103.631 19.4997 103.575 19.4733 103.527 19.4348L102.406 18.6387C102.299 18.5622 102.226 18.4473 102.202 18.318C102.187 18.2553 102.188 18.1901 102.203 18.1277C102.219 18.0652 102.249 18.0073 102.291 17.9586C102.552 17.6189 102.879 17.3351 103.252 17.1239C103.588 16.9404 103.947 16.8014 104.318 16.7104C104.677 16.6233 105.043 16.5677 105.412 16.5443C105.775 16.5211 106.115 16.494 106.431 16.4631C106.721 16.4375 107.007 16.3805 107.285 16.2931C107.528 16.2122 107.737 16.0532 107.88 15.841C108.009 15.6617 108.093 15.4539 108.124 15.2353C108.156 15.0166 108.134 14.7935 108.061 14.5851C107.879 14.07 107.529 13.6307 107.069 13.3369C106.234 12.7418 105.324 12.7225 104.338 13.2789C104.238 13.3421 104.129 13.3866 104.013 13.4103C103.953 13.4145 103.893 13.4067 103.836 13.3875C103.779 13.3683 103.726 13.3379 103.681 13.2982L102.491 12.452C102.448 12.4233 102.411 12.3864 102.383 12.3432C102.354 12.3001 102.335 12.2516 102.325 12.2008C102.316 12.1482 102.318 12.0943 102.33 12.0424C102.343 11.9905 102.366 11.9418 102.399 11.8994C102.679 11.5396 103.044 11.2543 103.461 11.0685C103.934 10.854 104.441 10.7232 104.96 10.6821C105.53 10.6344 106.104 10.6801 106.659 10.8174C107.259 10.9619 107.823 11.2246 108.32 11.5902Z" fill="#3499C5"/>
<g opacity="0.6">
<path d="M102.974 20.3583C103.027 20.395 103.072 20.442 103.105 20.4964C103.139 20.5509 103.162 20.6118 103.171 20.6752C103.184 20.7381 103.183 20.8028 103.169 20.8653C103.155 20.9278 103.128 20.9868 103.09 21.0384L102.171 22.333C102.134 22.3857 102.087 22.4303 102.033 22.4642C101.978 22.4981 101.917 22.5205 101.854 22.5301C101.791 22.5424 101.727 22.5415 101.664 22.5275C101.602 22.5136 101.543 22.4868 101.491 22.4489L100.224 21.5485C100.171 21.5124 100.127 21.4655 100.093 21.4108C100.06 21.3562 100.039 21.2951 100.031 21.2317C100.019 21.1688 100.019 21.1041 100.033 21.0415C100.047 20.979 100.074 20.9201 100.112 20.8684L101.043 19.5739C101.118 19.4689 101.232 19.3979 101.359 19.3762C101.486 19.3545 101.617 19.3839 101.723 19.4579L102.974 20.3583ZM108.32 11.5902C108.782 11.9141 109.193 12.3048 109.541 12.7495C109.879 13.1632 110.141 13.6344 110.313 14.1407C110.474 14.6258 110.528 15.1398 110.472 15.6477C110.406 16.1894 110.201 16.7047 109.877 17.1432C109.636 17.4978 109.326 17.8001 108.965 18.032C108.648 18.231 108.303 18.3821 107.942 18.4803C107.59 18.5723 107.23 18.6344 106.868 18.6658L105.84 18.7585C105.532 18.7831 105.227 18.8362 104.929 18.9169C104.654 18.9795 104.402 19.1188 104.203 19.3188C104.113 19.4102 103.999 19.4745 103.874 19.5043C103.815 19.5213 103.752 19.5239 103.692 19.5118C103.631 19.4997 103.575 19.4733 103.527 19.4348L102.406 18.6387C102.299 18.5622 102.226 18.4473 102.202 18.318C102.187 18.2553 102.188 18.1901 102.203 18.1277C102.219 18.0652 102.249 18.0073 102.291 17.9586C102.552 17.6189 102.879 17.3351 103.252 17.1239C103.588 16.9404 103.947 16.8014 104.318 16.7104C104.677 16.6233 105.043 16.5677 105.412 16.5443C105.775 16.5211 106.115 16.494 106.431 16.4631C106.721 16.4375 107.007 16.3805 107.285 16.2931C107.528 16.2122 107.737 16.0532 107.88 15.841C108.009 15.6617 108.093 15.4539 108.124 15.2353C108.156 15.0166 108.134 14.7935 108.061 14.5851C107.879 14.07 107.529 13.6307 107.069 13.3369C106.234 12.7418 105.324 12.7225 104.338 13.2789C104.238 13.3421 104.129 13.3866 104.013 13.4103C103.953 13.4145 103.893 13.4067 103.836 13.3875C103.779 13.3683 103.726 13.3379 103.681 13.2982L102.491 12.452C102.448 12.4233 102.411 12.3864 102.383 12.3432C102.354 12.3001 102.335 12.2516 102.325 12.2008C102.316 12.1482 102.318 12.0943 102.33 12.0424C102.343 11.9905 102.366 11.9418 102.399 11.8994C102.679 11.5396 103.044 11.2543 103.461 11.0685C103.934 10.854 104.441 10.7232 104.96 10.6821C105.53 10.6344 106.104 10.6801 106.659 10.8174C107.259 10.9619 107.823 11.2246 108.32 11.5902Z" fill="white"/>
</g>
<path d="M74.2091 54.5652H60.4851V21.3012C60.4851 18.4121 61.6323 15.6413 63.6744 13.5983C65.7164 11.5554 68.486 10.4077 71.3739 10.4077H72.6408C75.5287 10.4077 78.2983 11.5554 80.3404 13.5983C82.3824 15.6413 83.5296 18.4121 83.5296 21.3012V45.2599C83.5245 47.7296 82.5403 50.0964 80.7929 51.8409C79.0455 53.5854 76.6777 54.5652 74.2091 54.5652Z" fill="#263238"/>
<path d="M59.1486 134.645C58.9058 136.023 58.7767 137.419 58.7623 138.819C58.7121 141.354 58.2486 142.254 58.1868 144.333C58.1134 146.71 58.5267 147.598 59.4885 148.935C60.4503 150.273 62.9649 151.482 64.0542 149.225C65.1434 146.969 64.985 145.489 64.6413 143.158C64.2898 140.747 64.255 139.414 64.0387 137.578C63.861 135.959 63.6524 134.726 63.6524 134.726L59.1486 134.645Z" fill="#263238"/>
<path d="M66.3409 117.808L57.9976 117.658C58.1212 123.23 59.0057 129.417 59.1564 134.661C59.1873 135.646 59.1332 142.308 59.504 144.321C60.0641 147.367 63.6718 146.953 63.8649 145.133C64.058 143.313 63.6332 135.534 63.6447 134.73C63.61 131.376 65.1898 125.715 66.0048 119.694C66.0396 119.404 66.3022 118.098 66.3409 117.808Z" fill="#FFA8A7"/>
<path d="M77.0597 130.31C77.0597 130.31 76.7314 130.132 76.6734 130.483C76.5923 130.901 76.4687 131.763 76.2872 132.45C76.0477 133.405 75.8468 134.978 75.9897 135.758C76.1326 136.539 77.9481 137.536 79.1262 137.899C80.5782 138.347 81.9023 139.136 82.9888 140.198C84.1476 141.296 86.6699 142.331 88.3965 142.32C90.4244 142.32 91.8381 141.644 92.5064 140.558C93.1746 139.472 91.8961 139.34 89.5785 137.853L87.7824 136.693C84.109 134.294 82.7609 133.011 81.7296 130.611L77.0597 130.31Z" fill="#263238"/>
<path d="M81.7605 128.822C81.6987 127.098 82.8884 112.449 82.8884 112.449L74.9661 116.062C76.6618 126.194 77.0249 128.586 77.052 130.244C77.0172 130.383 77.0029 130.526 77.0095 130.669C77.0095 132.636 79.2382 133.699 80.9687 135.012C82.4397 136.165 84.0073 137.189 85.6541 138.073C86.9133 138.703 89.4703 138.761 89.7871 137.953C87.6781 136.342 84.6111 133.93 82.9348 132.091C82.1159 131.225 81.8223 130.549 81.7605 128.822Z" fill="#FFA8A7"/>
<path d="M61.416 63.4338C58.3722 70.1152 58.3722 75.2857 58.8782 83.8142C59.3263 91.6394 60.0717 98.5372 60.0717 98.5372C59.9559 99.9245 58.0284 102.633 57.7773 108.77C57.5456 114.505 58.1636 121.797 58.1636 121.797C58.1636 121.797 62.4936 124.196 65.6958 121.773C65.6958 121.773 68.7859 107.016 69.6897 99.8356C70.4623 93.5716 71.8528 85.5686 71.8528 85.5686L74.7768 99.7931C74.1457 101.811 73.6883 103.88 73.4095 105.976C73 110.2 75.364 118.493 75.364 118.493C75.364 118.493 79.8369 119.826 82.5678 117.403C82.5678 117.403 83.5875 103.92 83.9699 98.8348C84.4798 92.022 83.406 73.5815 82.5678 63.8164L61.416 63.4338Z" fill="#455A64"/>
<path d="M71.8606 85.557L73.0619 74.8374C73.0619 74.8374 78.4464 74.1186 80.8876 71.8232C80.1889 72.9169 79.2581 73.8432 78.1613 74.5364C77.0645 75.2297 75.8285 75.6728 74.5413 75.8344L72.8031 85.8082L74.7769 99.7931L71.8606 85.557Z" fill="#263238"/>
<path d="M93.6652 60.7982C93.8876 58.8421 93.9857 56.8737 93.9588 54.9051C93.839 53.2048 93.5339 52.9266 91.1583 49.9163C87.9523 45.8472 85.2137 42.1877 82.3168 38.5514C80.2464 35.9546 78.0678 35.5565 75.9511 35.6725C74.4679 35.7536 77.3648 42.891 78.8211 47.1147L87.1373 56.0722C87.395 56.4257 87.5132 56.8618 87.4695 57.2971L86.9674 64.9176L89.4588 68.2563C89.4588 68.2563 93.2326 65.0026 93.6652 60.7982Z" fill="#FFA8A7"/>
<path d="M67.9323 35.9044C66.3215 36.0164 63.3937 36.2908 63.3937 36.2908C61.7057 37.2337 61.2769 38.0104 60.9641 40.2517C60.8289 41.2101 61.6091 43.7567 62.2774 47.3775L63.5443 54.0898L63.4052 57.4209C62.7486 59.4535 61.2615 61.9769 59.9482 65.6982C66.3988 69.2997 71.8065 69.435 76.712 68.7896C80.4511 68.3066 82.4326 67.4024 83.0931 66.5058C82.9541 62.8309 82.7069 60.5587 82.6296 56.7175C82.6026 55.1061 82.6991 53.4754 82.7648 51.6205C85.2717 49.557 85.3026 46.1255 83.9236 43.8919C80.7446 38.7408 77.6507 35.4986 75.6035 35.6648L67.9323 35.9044Z" fill="#3499C5"/>
<path opacity="0.6" d="M67.9323 35.9044C66.3215 36.0164 63.3937 36.2908 63.3937 36.2908C61.7057 37.2337 61.2769 38.0104 60.9641 40.2517C60.8289 41.2101 61.6091 43.7567 62.2774 47.3775L63.5443 54.0898L63.4052 57.4209C62.7486 59.4535 61.2615 61.9769 59.9482 65.6982C66.3988 69.2997 71.8065 69.435 76.712 68.7896C80.4511 68.3066 82.4326 67.4024 83.0931 66.5058C82.9541 62.8309 82.7069 60.5587 82.6296 56.7175C82.6026 55.1061 82.6991 53.4754 82.7648 51.6205C85.2717 49.557 85.3026 46.1255 83.9236 43.8919C80.7446 38.7408 77.6507 35.4986 75.6035 35.6648L67.9323 35.9044Z" fill="white"/>
<path opacity="0.1" d="M77.7704 51.6709C77.7704 51.6709 74.8271 53.9586 71.4627 52.7645C70.518 52.4667 69.6661 51.93 68.9894 51.2063C68.3127 50.4826 67.8342 49.5964 67.6001 48.6335C67.6001 48.6335 67.2447 52.4785 71.4821 53.7885C75.5881 55.0522 77.7704 51.6709 77.7704 51.6709Z" fill="black"/>
<path d="M81.7644 25.351C81.6369 30.9311 79.8331 32.3068 78.9215 32.6932C78.0099 33.0797 76.264 32.8478 74.5644 32.5657V35.9354C74.5644 35.9354 76.5267 37.9912 76.3799 39.5253C76.2331 41.0594 73.2898 41.2333 71.0958 39.7301C69.8852 38.8982 68.7902 37.9094 67.8396 36.7894C67.657 36.5733 67.5571 36.2994 67.5576 36.0165V28.1333C67.5576 28.1333 66.6267 29.1187 64.9812 27.9904C64.6262 27.7637 64.3222 27.4656 64.0885 27.115C63.8549 26.7644 63.6967 26.369 63.624 25.954C63.5513 25.5389 63.5658 25.1133 63.6665 24.7041C63.7671 24.295 63.9518 23.9112 64.2087 23.5773C64.9271 22.731 66.7503 22.6731 67.6233 23.9637C68.1177 24.926 68.1833 25.8959 68.7357 25.5095C70.2035 24.4506 69.4155 22.0316 71.1885 20.8723C71.7703 20.5685 72.3746 20.3101 72.9962 20.0994C76.1597 19.0058 78.9022 18.0861 79.5627 15.9221C80.8065 16.6332 81.9189 18.7701 81.7644 25.351Z" fill="#FFA8A7"/>
<path d="M75.5262 30.3352C75.9315 30.3352 76.2601 30.0067 76.2601 29.6013C76.2601 29.196 75.9315 28.8674 75.5262 28.8674C75.1209 28.8674 74.7923 29.196 74.7923 29.6013C74.7923 30.0067 75.1209 30.3352 75.5262 30.3352Z" fill="#B16668"/>
<path d="M75.0395 24.5045C75.0393 24.6556 74.9948 24.8033 74.9115 24.9294C74.8282 25.0554 74.7098 25.1543 74.5708 25.2137C74.4319 25.2732 74.2786 25.2906 74.1299 25.2638C73.9812 25.2369 73.8436 25.1671 73.7342 25.0629C73.6248 24.9587 73.5483 24.8247 73.5143 24.6775C73.4803 24.5302 73.4902 24.3763 73.5428 24.2346C73.5953 24.0929 73.6883 23.9698 73.8102 23.8805C73.932 23.7911 74.0774 23.7395 74.2283 23.7319C74.333 23.7267 74.4376 23.7428 74.5359 23.7793C74.6341 23.8157 74.7239 23.8718 74.7998 23.9441C74.8756 24.0163 74.936 24.1033 74.9772 24.1996C75.0184 24.296 75.0396 24.3997 75.0395 24.5045Z" fill="#263238"/>
<path d="M80.8914 24.5818C80.8993 24.6763 80.8883 24.7714 80.8591 24.8616C80.8299 24.9518 80.783 25.0353 80.7211 25.1072C80.6593 25.1792 80.5838 25.238 80.4989 25.2804C80.4141 25.3229 80.3217 25.348 80.2271 25.3543C80.1316 25.3631 80.0353 25.3515 79.9447 25.3203C79.854 25.2891 79.7711 25.2389 79.7013 25.1731C79.6315 25.1074 79.5765 25.0275 79.54 24.9389C79.5034 24.8503 79.4861 24.7548 79.4893 24.659C79.4793 24.5638 79.4889 24.4676 79.5175 24.3762C79.546 24.2848 79.5929 24.2003 79.6553 24.1277C79.7177 24.0551 79.7942 23.996 79.8802 23.954C79.9663 23.912 80.06 23.8881 80.1556 23.8836C80.2512 23.8791 80.3467 23.8942 80.4363 23.9279C80.5259 23.9617 80.6076 24.0134 80.6765 24.0798C80.7454 24.1463 80.8 24.2261 80.837 24.3144C80.8739 24.4027 80.8925 24.4976 80.8914 24.5934V24.5818Z" fill="#263238"/>
<path d="M74.0468 26.4911C73.3806 26.4911 72.7416 26.2266 72.2701 25.7556C71.7986 25.2847 71.5332 24.6458 71.5322 23.9793C71.5322 22.2712 73.2936 22.2712 74.0468 22.2712C74.8 22.2712 76.5575 22.2712 76.5575 23.9793C76.5565 24.6451 76.2917 25.2834 75.821 25.7542C75.3504 26.2251 74.7124 26.49 74.0468 26.4911ZM74.0468 22.6654C72.5017 22.6654 71.9301 23.0518 71.9301 23.9793C71.9301 24.5429 72.1539 25.0835 72.5523 25.4821C72.9507 25.8807 73.4911 26.1046 74.0545 26.1046C74.618 26.1046 75.1583 25.8807 75.5567 25.4821C75.9552 25.0835 76.179 24.5429 76.179 23.9793C76.1635 23.0325 75.5687 22.6654 74.0468 22.6654Z" fill="#455A64"/>
<path d="M80.4241 26.4911C79.7578 26.4911 79.1188 26.2266 78.6474 25.7556C78.1759 25.2847 77.9105 24.6458 77.9095 23.9793C77.9095 22.2712 79.6708 22.2712 80.4241 22.2712C81.1773 22.2712 82.9348 22.2712 82.9348 23.9793C82.9338 24.6451 82.6689 25.2834 82.1983 25.7542C81.7277 26.2251 81.0896 26.49 80.4241 26.4911ZM80.4241 22.6654C78.9022 22.6654 78.3073 23.0518 78.3073 23.9793C78.3073 24.5429 78.5312 25.0835 78.9296 25.4821C79.328 25.8807 79.8684 26.1046 80.4318 26.1046C80.9952 26.1046 81.5356 25.8807 81.934 25.4821C82.3324 25.0835 82.5562 24.5429 82.5562 23.9793C82.5408 23.0325 81.9459 22.6654 80.4241 22.6654Z" fill="#455A64"/>
<path d="M76.9476 23.1677L77.0712 27.8629L79.5395 27.0977L76.9476 23.1677Z" fill="#F28F8F"/>
<path d="M74.5605 32.5773C72.7683 32.3416 69.0794 31.2827 68.5039 29.822C68.7356 30.5602 69.187 31.2101 69.7979 31.6846C70.8987 32.6314 74.5605 33.6941 74.5605 33.6941V32.5773Z" fill="#F28F8F"/>
<path d="M74.6494 20.8875L73.0116 21.888C72.8826 21.6631 72.8451 21.3972 72.9069 21.1455C72.9688 20.8937 73.1253 20.6754 73.3438 20.536C73.4519 20.4705 73.5721 20.4275 73.6972 20.4097C73.8223 20.3919 73.9498 20.3997 74.0718 20.4325C74.1938 20.4654 74.3079 20.5226 74.4072 20.6009C74.5065 20.6791 74.5889 20.7766 74.6494 20.8875Z" fill="#263238"/>
<path d="M81.3124 22.0002L79.4893 21.3628C79.5245 21.242 79.5842 21.1297 79.6645 21.0327C79.7448 20.9358 79.844 20.8563 79.9562 20.7992C80.0683 20.742 80.191 20.7084 80.3166 20.7004C80.4422 20.6923 80.5682 20.7101 80.6867 20.7525C80.9312 20.8404 81.1326 21.019 81.249 21.2512C81.3655 21.4835 81.3882 21.7517 81.3124 22.0002Z" fill="#263238"/>
<path d="M76.3605 24.1797C76.3344 24.1798 76.3084 24.1745 76.2843 24.1644C76.2601 24.1542 76.2382 24.1394 76.2199 24.1207C76.2015 24.102 76.1871 24.0798 76.1774 24.0555C76.1678 24.0311 76.163 24.0051 76.1636 23.9789C76.1636 23.6583 76.797 23.4497 77.3687 23.4497C77.9404 23.4497 78.3073 23.6583 78.3073 23.9789C78.2953 24.0209 78.27 24.0578 78.2351 24.0841C78.2003 24.1104 78.1578 24.1246 78.1142 24.1246C78.0705 24.1246 78.0281 24.1104 77.9932 24.0841C77.9584 24.0578 77.933 24.0209 77.9211 23.9789C77.9211 23.9403 77.7241 23.8437 77.3803 23.8437C77.1035 23.8378 76.8281 23.885 76.5691 23.9828C76.5692 24.0096 76.5637 24.0362 76.5531 24.0609C76.5425 24.0856 76.5269 24.1079 76.5074 24.1263C76.4879 24.1448 76.4648 24.159 76.4395 24.1682C76.4142 24.1774 76.3874 24.1813 76.3605 24.1797Z" fill="#455A64"/>
<path d="M71.737 24.0096H71.7138L67.2988 23.6233C67.0925 23.4189 66.8467 23.2585 66.5765 23.1521L71.7601 23.6311C71.8121 23.6378 71.8594 23.6646 71.8919 23.7058C71.9243 23.7469 71.9394 23.7991 71.934 23.8512C71.9249 23.8965 71.9002 23.9372 71.8642 23.9662C71.8282 23.9951 71.7832 24.0105 71.737 24.0096Z" fill="#455A64"/>
<path d="M53.6096 28.6164C55.0542 26.6842 56.0392 25.2274 57.3563 23.5928C58.1057 22.6537 58.5847 21.9813 59.2877 21.0191C59.7821 20.3545 60.0602 19.7941 60.6241 19.5893C61.2334 19.3396 61.7825 18.9628 62.2349 18.4841C62.5129 18.1764 62.7709 17.8511 63.0074 17.5103C63.8353 16.3955 64.8187 15.4052 65.9275 14.5696C67.0863 13.6963 68.3803 13.0239 69.5739 12.1931C70.2846 11.6946 71.0455 10.8676 70.1803 10.0947C69.9149 9.87115 69.5974 9.71828 69.2571 9.65034C67.152 9.19435 65.3211 9.91698 63.2623 10.4425C62.368 10.6658 61.4935 10.9618 60.6473 11.3274C60.2311 11.4921 59.8408 11.716 59.4885 11.9921C58.9959 12.489 58.5922 13.0667 58.295 13.7001C57.395 15.3077 55.4636 16.7452 54.1117 18.0166C52.5319 19.5043 51.1182 20.8684 49.3143 22.5069C47.692 23.9869 46.1045 25.3472 44.6173 26.9624C43.3852 28.2956 43.8448 29.339 44.007 29.7022C45.0113 31.7658 46.1354 32.5077 47.4834 33.7868C49.801 36.0011 57.816 42.3733 60.4696 44.4794C61.0398 44.9274 61.4875 45.5122 61.7713 46.1796L62.2812 47.3583C65.3095 47.9147 67.3297 43.3664 64.8228 37.8907C64.4077 37.0053 63.7735 36.2405 62.9803 35.6687C59.813 33.3617 53.6096 28.6164 53.6096 28.6164Z" fill="#FFA8A7"/>
<path d="M53.6096 28.6165C52.6457 29.8027 51.3612 30.6867 49.9092 31.163C49.9092 31.163 51.8405 31.6577 54.4864 29.2811L53.6096 28.6165Z" fill="#F28F8F"/>
<path d="M92.8772 56.7679L92.3828 56.3428C92.3089 56.2941 92.2246 56.2635 92.1367 56.2534C92.0488 56.2433 91.9598 56.2541 91.8768 56.2848L86.5116 57.7455C86.2413 57.8357 85.9937 57.9832 85.7857 58.1779C85.5777 58.3727 85.4142 58.6101 85.3064 58.8739L81.4438 70.0147C81.3973 70.1055 81.379 70.2082 81.3914 70.3094C81.4038 70.4107 81.4463 70.5059 81.5133 70.5828L82.0232 71.0233C82.0974 71.0745 82.1829 71.1069 82.2724 71.1176C82.3619 71.1284 82.4527 71.1173 82.5369 71.0851L87.9098 69.6244C88.1801 69.5343 88.4277 69.3868 88.6357 69.192C88.8437 68.9973 89.0072 68.7599 89.115 68.4961C89.8875 66.305 92.2051 59.5463 92.9776 57.3552C93.0703 57.0809 93.024 56.8722 92.8772 56.7679Z" fill="#455A64"/>
<path d="M81.9498 70.4437L85.8124 59.3029C85.9198 59.0392 86.0832 58.8021 86.2913 58.6079C86.4994 58.4137 86.7472 58.2671 87.0176 58.1783L92.3789 56.7176C92.8772 56.5824 93.1514 56.8683 92.9738 57.3552C92.2012 59.5463 89.8836 66.305 89.1111 68.496C89.0033 68.7599 88.8398 68.9973 88.6318 69.192C88.4238 69.3868 88.1762 69.5343 87.906 69.6244L82.5446 71.1006C82.0502 71.2165 81.7837 70.9306 81.9498 70.4437Z" fill="#3499C5"/>
<path d="M86.4343 58.4876C86.1554 58.6989 85.9391 58.9821 85.8086 59.3068L81.9459 70.4438C81.9017 70.5322 81.8833 70.6313 81.8929 70.7298C81.9024 70.8282 81.9396 70.922 82 71.0002L81.521 70.5906C81.4524 70.5147 81.4086 70.4196 81.3955 70.3181C81.3824 70.2165 81.4006 70.1134 81.4477 70.0226L85.3103 58.8817C85.4325 58.5789 85.6307 58.3127 85.8858 58.1089L86.4343 58.4876Z" fill="#37474F"/>
<path d="M91.4055 61.8456C91.0193 62.9779 89.6789 63.7353 87.4618 64.2608C85.2446 64.7864 84.0201 67.1397 84.3716 67.8546C84.7231 68.5695 88.3077 69.2381 89.7407 69.0332C91.1738 68.8284 92.6107 66.7572 93.0471 66.1157C93.4836 65.4742 93.9858 60.9993 93.5261 60.3849C93.0665 59.7705 92.0969 59.8671 92.0969 59.8671L91.4055 61.8456Z" fill="#F28F8F"/>
</svg>
