<svg width="216" height="87" viewBox="0 0 216 87" fill="none" xmlns="http://www.w3.org/2000/svg">
<g clip-path="url(#clip0_959_1890)">
<path d="M36.1804 0C36.308 0 36.4355 0 36.5669 0C37.1014 2.2456 37.2009 4.56427 36.5669 6.80054C36.5517 6.85711 36.5364 6.91367 36.5207 6.97195C36.0835 8.56481 35.1919 10.0595 34.1124 11.2893C33.9323 11.4889 33.9323 11.4889 33.7838 11.7251C33.7328 11.7251 33.6818 11.7251 33.6292 11.7251C33.6085 11.7718 33.5878 11.8186 33.5664 11.8667C33.4747 12.0376 33.3899 12.1482 33.2427 12.2722C33.1916 12.2722 33.1406 12.2722 33.0881 12.2722C33.0625 12.3496 33.037 12.427 33.0107 12.5067C32.8525 12.6561 32.8525 12.6561 32.6435 12.8243C32.5665 12.8865 32.4895 12.9486 32.4101 13.0127C32.3269 13.0787 32.2437 13.1445 32.1604 13.2102C32.1196 13.2425 32.0788 13.2747 32.0367 13.3079C31.5892 13.6604 31.137 14.0062 30.6818 14.3486C30.236 14.686 29.8043 15.0376 29.3772 15.3989C29.3368 15.4326 29.2964 15.4663 29.2548 15.5011C28.1949 16.3857 27.2017 17.3446 26.3622 18.4474C26.3016 18.523 26.241 18.5986 26.1786 18.6764C23.8506 21.6035 22.68 25.3763 23.0234 29.1221C23.0303 29.1997 23.0372 29.2772 23.0443 29.3571C23.0954 29.9165 23.1565 30.4744 23.2216 31.0323C23.7112 35.2359 23.7112 35.2359 23.7337 36.973C23.7349 37.0614 23.7361 37.1498 23.7373 37.2408C23.7445 37.9073 23.742 38.5734 23.7337 39.2399C23.7332 39.3105 23.7326 39.3811 23.732 39.4539C23.7078 41.5559 23.3618 43.7067 22.806 45.7278C22.788 45.7956 22.77 45.8634 22.7514 45.9333C22.3706 47.3601 21.7945 48.6863 21.1825 50.027C21.157 54.9796 21.1315 59.9323 21.1052 65.035C32.56 65.035 44.0148 65.035 55.8168 65.035C55.8168 64.9835 55.8168 64.9319 55.8168 64.8787C57.3475 64.8787 58.8782 64.8787 60.4553 64.8787C60.4553 64.8271 60.4553 64.7755 60.4553 64.7224C60.5001 64.7129 60.545 64.7034 60.5912 64.6937C60.9408 64.6178 61.2782 64.5335 61.6149 64.4097C61.6851 64.3871 61.7552 64.3646 61.8275 64.3413C62.0409 64.2334 62.0593 64.1559 62.1561 63.9407C62.1816 63.8927 62.2071 63.8448 62.2334 63.7954C62.4236 63.4317 62.5346 63.0923 62.6199 62.69C62.6709 62.69 62.722 62.69 62.7745 62.69C62.7736 62.625 62.7727 62.5601 62.7718 62.4931C62.7708 62.3657 62.7708 62.3657 62.7697 62.2357C62.7688 62.1514 62.7679 62.067 62.767 61.9801C62.7745 61.752 62.7745 61.752 62.8518 61.5175C62.8609 61.3557 62.8655 61.1937 62.8677 61.0317C62.87 60.8794 62.87 60.8794 62.8724 60.724C62.8737 60.6161 62.875 60.5082 62.8763 60.4003C62.8777 60.3022 62.8792 60.2041 62.8807 60.103C62.8859 59.7358 62.8906 59.3687 62.8953 59.0015C62.9065 58.1809 62.9176 57.3603 62.9291 56.5148C66.0671 56.5148 69.205 56.5148 72.4381 56.5148C72.4636 57.7272 72.4891 58.9396 72.5154 60.1887C72.5409 60.3693 72.5664 60.5498 72.5927 60.7359C72.601 60.9453 72.5963 61.1514 72.5927 61.3612C72.6437 61.3612 72.6948 61.3612 72.7473 61.3612C72.7473 61.5676 72.7473 61.7739 72.7473 61.9865C72.8239 62.0123 72.9004 62.0381 72.9792 62.0647C73.0418 62.2042 73.0418 62.2042 73.0904 62.3823C73.183 62.6922 73.3015 62.9666 73.4494 63.2531C73.5367 63.4258 73.6077 63.6029 73.675 63.7844C73.726 63.7844 73.7771 63.7844 73.8296 63.7844C73.8296 63.836 73.8296 63.8876 73.8296 63.9407C73.9572 63.9923 74.0848 64.0439 74.2162 64.097C74.2162 64.1486 74.2162 64.2002 74.2162 64.2534C74.4982 64.3528 74.7723 64.4354 75.0666 64.4879C75.0666 64.5395 75.0666 64.5911 75.0666 64.6442C75.2452 64.6442 75.4237 64.6442 75.6077 64.6442C75.6332 64.7216 75.6588 64.799 75.685 64.8787C81.2466 64.8787 86.8082 64.8787 92.5383 64.8787C92.5383 64.8271 92.5383 64.7755 92.5383 64.7224C92.6334 64.7011 92.6334 64.7011 92.7304 64.6793C92.8137 64.6597 92.897 64.64 92.9828 64.6198C93.1066 64.5912 93.1066 64.5912 93.2329 64.5621C93.4615 64.4893 93.591 64.4031 93.7752 64.2534C93.8263 64.2534 93.8773 64.2534 93.9298 64.2534C93.9298 64.176 93.9298 64.0986 93.9298 64.0189C93.9809 64.0189 94.0319 64.0189 94.0845 64.0189C94.0956 63.9173 94.1068 63.8157 94.1183 63.7111C94.1521 63.4033 94.1521 63.4033 94.2391 63.3154C94.2569 63.21 94.2709 63.104 94.2826 62.9978C94.2937 62.8962 94.3049 62.7947 94.3164 62.69C94.3929 62.6642 94.4695 62.6384 94.5483 62.6119C94.5483 60.5998 94.5483 58.5878 94.5483 56.5148C97.7118 56.5148 100.875 56.5148 104.135 56.5148C104.16 57.495 104.186 58.4753 104.212 59.4852C104.237 59.5368 104.263 59.5884 104.289 59.6415C104.305 59.7823 104.318 59.9236 104.328 60.065C104.334 60.1502 104.341 60.2354 104.347 60.3232C104.357 60.4573 104.357 60.4573 104.367 60.5942C104.421 61.371 104.421 61.371 104.521 62.1429C104.598 62.1687 104.674 62.1945 104.753 62.221C104.821 62.3798 104.821 62.3798 104.874 62.5728C104.923 62.7616 104.923 62.7616 104.985 62.9245C105.062 62.9632 105.062 62.9632 105.14 63.0027C105.154 63.0728 105.154 63.0728 105.169 63.1444C105.232 63.3695 105.362 63.4676 105.526 63.628C105.526 63.6796 105.526 63.7312 105.526 63.7844C105.585 63.8069 105.644 63.8295 105.705 63.8528C105.913 63.9407 105.913 63.9407 106.145 64.097C106.145 64.1486 106.145 64.2002 106.145 64.2534C106.247 64.2534 106.349 64.2534 106.454 64.2534C106.454 64.305 106.454 64.3566 106.454 64.4097C106.861 64.4975 107.272 64.5492 107.684 64.6051C107.923 64.6442 107.923 64.6442 108.077 64.7224C108.077 64.774 108.077 64.8256 108.077 64.8787C121.497 64.8529 134.916 64.8271 148.742 64.8005C148.665 64.5426 148.589 64.2846 148.51 64.0189C148.459 63.9931 148.408 63.9673 148.355 63.9407C148.355 63.7859 148.355 63.6312 148.355 63.4717C148.304 63.4717 148.253 63.4717 148.2 63.4717C148.185 63.363 148.185 63.363 148.169 63.2522C148.156 63.1586 148.142 63.0649 148.128 62.9685C148.108 62.8284 148.108 62.8284 148.087 62.6855C148.07 62.4649 148.07 62.4649 147.969 62.3774C147.957 62.2887 147.946 62.2 147.935 62.1087C147.918 61.827 147.918 61.827 147.737 61.6739C147.707 61.4904 147.707 61.4904 147.693 61.2781C147.695 61.0221 147.695 61.0221 147.582 60.814C147.582 60.6604 147.582 60.5068 147.587 60.3533C147.588 60.1909 147.588 60.1909 147.546 60.047C147.465 59.7117 147.469 59.3612 147.449 59.0177C147.453 58.7913 147.453 58.7913 147.35 58.7035C147.344 58.5326 147.344 58.3615 147.345 58.1905C147.346 58.0969 147.347 58.0033 147.347 57.9069C147.348 57.8344 147.349 57.762 147.35 57.6873C147.299 57.6873 147.248 57.6873 147.195 57.6873C147.107 57.5084 147.097 57.3782 147.079 57.1793C147.073 57.1099 147.067 57.0406 147.06 56.9692C147.047 56.8226 147.034 56.6761 147.021 56.5295C147.015 56.4602 147.009 56.3908 147.002 56.3194C146.997 56.2557 146.991 56.1921 146.985 56.1264C146.971 55.9627 146.971 55.9627 146.886 55.8113C146.876 55.6024 146.883 55.3953 146.886 55.186C146.835 55.186 146.784 55.186 146.732 55.186C146.732 55.0054 146.732 54.8249 146.732 54.6388C146.681 54.6388 146.63 54.6388 146.577 54.6388C146.465 54.2842 146.404 53.9994 146.422 53.6226C146.371 53.6226 146.32 53.6226 146.268 53.6226C146.268 53.4937 146.268 53.3647 146.268 53.2318C146.217 53.2318 146.166 53.2318 146.113 53.2318C146.113 53.1286 146.113 53.0255 146.113 52.9191C146.062 52.9191 146.011 52.9191 145.958 52.9191C145.958 52.816 145.958 52.7128 145.958 52.6065C145.907 52.6065 145.856 52.6065 145.804 52.6065C145.77 52.5114 145.737 52.4162 145.702 52.3182C145.539 51.8381 145.539 51.8381 145.185 51.5121C145.137 51.3118 145.137 51.3118 145.108 51.1213C145.057 51.1213 145.006 51.1213 144.953 51.1213C144.953 51.0697 144.953 51.0181 144.953 50.965C144.877 50.9392 144.8 50.9134 144.722 50.8868C144.722 50.8094 144.722 50.732 144.722 50.6523C144.671 50.6523 144.619 50.6523 144.567 50.6523C144.567 50.6007 144.567 50.5491 144.567 50.496C144.506 50.4766 144.446 50.4573 144.383 50.4373C144.144 50.3223 144.139 50.2557 144.026 50.027C143.848 49.9382 143.848 49.9382 143.639 49.8706C143.484 49.7936 143.329 49.7157 143.175 49.6361C143.175 49.5587 143.175 49.4814 143.175 49.4016C142.997 49.3758 142.818 49.35 142.634 49.3235C142.634 49.2719 142.634 49.2203 142.634 49.1671C142.583 49.1736 142.532 49.18 142.48 49.1867C142.245 49.1669 142.145 49.1221 141.943 49.0108C141.672 48.8632 141.477 48.8229 141.165 48.8545C141.165 48.8287 141.165 48.8029 141.165 48.7763C141.11 48.7715 141.056 48.7668 140.999 48.7619C140.928 48.7554 140.857 48.7488 140.784 48.7421C140.713 48.7357 140.642 48.7294 140.569 48.7229C140.392 48.6981 140.392 48.6981 140.315 48.62C140.073 48.5885 139.829 48.5824 139.585 48.5711C139.511 48.5676 139.436 48.5642 139.36 48.5606C138.743 48.537 138.129 48.5472 137.513 48.5711C137.425 48.5745 137.337 48.5778 137.246 48.5813C136.835 48.5825 136.835 48.5825 136.45 48.6981C136.324 48.714 136.199 48.7266 136.073 48.7372C135.829 48.7578 135.603 48.7898 135.367 48.8545C135.299 48.8674 135.23 48.8802 135.159 48.8935C134.984 48.9147 134.984 48.9147 134.903 49.0108C134.723 49.014 134.543 49.0141 134.362 49.0108C134.362 49.0624 134.362 49.114 134.362 49.1671C134.209 49.1929 134.056 49.2187 133.898 49.2453C133.898 49.2711 133.898 49.2969 133.898 49.3235C133.592 49.3493 133.286 49.375 132.971 49.4016C132.945 49.479 132.92 49.5564 132.893 49.6361C132.711 49.7131 132.711 49.7131 132.483 49.7729C132.408 49.7935 132.333 49.814 132.256 49.8352C132.046 49.8701 131.93 49.8718 131.734 49.7925C131.585 49.5714 131.547 49.3489 131.502 49.089C131.417 48.6597 131.307 48.2506 131.166 47.8371C131.107 47.6572 131.075 47.4767 131.038 47.2911C130.998 47.1769 130.958 47.063 130.917 46.9491C130.808 46.6297 130.785 46.3763 130.806 46.0404C130.755 46.0146 130.704 45.9888 130.651 45.9623C130.572 45.5684 130.567 45.1894 130.574 44.7898C130.498 44.764 130.421 44.7382 130.342 44.7116C130.342 44.5568 130.342 44.4021 130.342 44.2426C130.47 44.2426 130.597 44.2426 130.729 44.2426C130.754 44.1652 130.78 44.0878 130.806 44.0081C131.02 43.9257 131.224 43.8588 131.444 43.798C131.503 43.7804 131.562 43.7629 131.623 43.7447C131.924 43.6582 132.191 43.5936 132.507 43.6173C132.532 43.5399 132.558 43.4625 132.584 43.3828C132.654 43.3692 132.654 43.3692 132.725 43.3553C132.934 43.3143 133.143 43.2728 133.352 43.2313C133.425 43.217 133.499 43.2028 133.574 43.1881C133.643 43.1742 133.713 43.1604 133.785 43.1461C133.849 43.1334 133.913 43.1207 133.98 43.1077C134.13 43.0842 134.13 43.0842 134.208 42.9919C134.388 42.9887 134.568 42.9886 134.749 42.9919C134.774 42.9145 134.8 42.8371 134.826 42.7574C134.914 42.747 135.003 42.7367 135.094 42.726C135.209 42.712 135.324 42.6981 135.44 42.6841C135.498 42.6773 135.556 42.6705 135.617 42.6635C135.902 42.6524 135.902 42.6524 136.14 42.5229C136.258 42.5173 136.375 42.5164 136.493 42.518C136.557 42.5187 136.621 42.5194 136.687 42.5202C136.736 42.5211 136.785 42.522 136.836 42.5229C136.836 42.4713 136.836 42.4197 136.836 42.3666C137.117 42.3408 137.397 42.315 137.686 42.2884C137.686 42.2626 137.686 42.2368 137.686 42.2102C137.774 42.2055 137.861 42.2008 137.952 42.1959C138.066 42.1893 138.181 42.1827 138.295 42.176C138.353 42.173 138.411 42.1699 138.47 42.1667C138.784 42.1543 138.784 42.1543 139.078 42.0539C139.208 42.0464 139.338 42.0439 139.468 42.0438C139.59 42.0434 139.59 42.0434 139.714 42.0431C139.802 42.0432 139.89 42.0434 139.981 42.0435C140.117 42.0434 140.117 42.0434 140.255 42.0433C140.446 42.0433 140.637 42.0434 140.828 42.0437C141.12 42.0441 141.413 42.0437 141.706 42.0432C141.891 42.0433 142.077 42.0434 142.262 42.0435C142.35 42.0434 142.438 42.0432 142.528 42.0431C142.61 42.0433 142.691 42.0435 142.775 42.0438C142.847 42.0439 142.919 42.0439 142.993 42.044C143.175 42.0539 143.175 42.0539 143.407 42.1321C143.619 42.1499 143.829 42.1646 144.04 42.176C144.098 42.1794 144.156 42.1828 144.216 42.1863C144.359 42.1946 144.501 42.2024 144.644 42.2102C144.644 42.236 144.644 42.2618 144.644 42.2884C144.899 42.3142 145.154 42.34 145.417 42.3666C145.417 42.4182 145.417 42.4698 145.417 42.5229C145.46 42.5211 145.503 42.5193 145.548 42.5174C145.97 42.5073 146.328 42.557 146.732 42.6792C146.835 42.7086 146.938 42.7379 147.041 42.7672C147.117 42.7898 147.194 42.8123 147.273 42.8356C147.273 42.8872 147.273 42.9388 147.273 42.9919C147.426 42.9919 147.579 42.9919 147.737 42.9919C147.737 43.0435 147.737 43.0951 147.737 43.1483C147.992 43.174 148.247 43.1998 148.51 43.2264C148.51 43.278 148.51 43.3296 148.51 43.3828C148.612 43.3828 148.714 43.3828 148.819 43.3828C148.819 43.4601 148.819 43.5375 148.819 43.6173C148.873 43.6269 148.927 43.6366 148.983 43.6466C149.219 43.6984 149.441 43.7714 149.669 43.8518C149.669 43.9033 149.669 43.9549 149.669 44.0081C149.771 44.0339 149.873 44.0597 149.979 44.0863C149.979 44.1378 149.979 44.1894 149.979 44.2426C150.132 44.2684 150.285 44.2942 150.442 44.3208C150.442 44.3723 150.442 44.4239 150.442 44.4771C150.519 44.4771 150.595 44.4771 150.674 44.4771C150.674 44.5287 150.674 44.5803 150.674 44.6334C150.751 44.6334 150.827 44.6334 150.906 44.6334C150.906 44.685 150.906 44.7366 150.906 44.7898C151.034 44.8414 151.161 44.8929 151.293 44.9461C151.293 44.9977 151.293 45.0493 151.293 45.1024C151.337 45.1105 151.382 45.1186 151.428 45.1269C151.63 45.1891 151.755 45.2737 151.911 45.4151C151.911 45.4667 151.911 45.5183 151.911 45.5714C151.962 45.5714 152.013 45.5714 152.066 45.5714C152.066 45.623 152.066 45.6746 152.066 45.7278C152.168 45.7794 152.27 45.8309 152.375 45.8841C152.375 45.9357 152.375 45.9873 152.375 46.0404C152.417 46.0569 152.459 46.0733 152.503 46.0902C152.752 46.2362 152.928 46.4375 153.119 46.6511C153.157 46.6919 153.195 46.7326 153.234 46.7746C153.451 47.0147 153.573 47.2259 153.689 47.5256C153.766 47.5514 153.842 47.5772 153.921 47.6038C154.028 47.74 154.028 47.74 154.129 47.9067C154.163 47.9613 154.197 48.0159 154.231 48.0722C154.308 48.2291 154.308 48.2291 154.308 48.4636C154.359 48.4636 154.41 48.4636 154.462 48.4636C154.772 48.9815 154.772 48.9815 154.772 49.2453C154.823 49.2453 154.874 49.2453 154.926 49.2453C154.926 49.3485 154.926 49.4516 154.926 49.558C155.003 49.5838 155.079 49.6095 155.158 49.6361C155.232 49.7723 155.232 49.7723 155.289 49.939C155.308 49.9936 155.328 50.0482 155.348 50.1045C155.39 50.2615 155.39 50.2615 155.39 50.496C155.441 50.496 155.492 50.496 155.545 50.496C155.758 51.0093 155.937 51.5234 156.086 52.0593C156.111 52.0593 156.137 52.0593 156.163 52.0593C156.174 52.148 156.186 52.2366 156.197 52.328C156.21 52.5914 156.21 52.5914 156.318 52.6846C156.344 52.867 156.369 53.0494 156.395 53.2318C156.421 53.2576 156.446 53.2834 156.472 53.31C156.476 53.4923 156.476 53.6748 156.472 53.8572C156.523 53.8572 156.574 53.8572 156.627 53.8572C156.645 54.0149 156.662 54.1727 156.68 54.3304C156.698 54.4883 156.698 54.4883 156.782 54.6388C156.78 54.7291 156.778 54.8194 156.777 54.9124C156.75 55.1906 156.75 55.1906 156.936 55.3423C156.966 55.5087 156.966 55.5087 156.98 55.699C156.981 55.9349 156.981 55.9349 157.091 56.124C157.108 56.2506 157.12 56.3778 157.13 56.5051C157.139 56.6205 157.139 56.6205 157.149 56.7383C157.162 56.902 157.175 57.0657 157.188 57.2293C157.197 57.3448 157.197 57.3448 157.207 57.4626C157.212 57.5337 157.218 57.6049 157.224 57.6782C157.228 57.8423 157.228 57.8423 157.323 57.9218C157.328 58.0927 157.329 58.2638 157.328 58.4348C157.327 58.5284 157.326 58.622 157.326 58.7185C157.325 58.7909 157.324 58.8634 157.323 58.938C157.374 58.938 157.425 58.938 157.477 58.938C157.584 59.2622 157.585 59.5873 157.602 59.9259C157.614 60.2235 157.614 60.2235 157.709 60.5014C157.727 60.6941 157.741 60.8853 157.751 61.0784C157.756 61.1681 157.756 61.1681 157.761 61.2596C157.768 61.388 157.775 61.5164 157.781 61.6448C157.791 61.8311 157.802 62.0174 157.813 62.2036C157.88 63.4646 157.864 64.7039 157.864 65.9731C177.049 65.9731 196.234 65.9731 216 65.9731C215.75 66.2894 215.525 66.5116 215.212 66.7498C214.785 67.0821 214.366 67.4228 213.951 67.7709C213.55 68.1074 213.145 68.439 212.734 68.7626C212.343 69.0702 211.963 69.3884 211.587 69.7142C211.188 70.0576 210.777 70.3841 210.364 70.7092C210.13 70.8856 210.13 70.8856 209.96 71.0633C209.65 71.2688 209.402 71.2535 209.038 71.2493C208.967 71.2497 208.896 71.2501 208.822 71.2505C208.582 71.2516 208.342 71.2504 208.102 71.2492C207.928 71.2494 207.755 71.2499 207.581 71.2504C207.1 71.2515 206.619 71.2506 206.138 71.2495C205.669 71.2486 205.201 71.2493 204.733 71.2498C203.763 71.251 202.793 71.2507 201.823 71.2496C200.84 71.2485 199.857 71.2481 198.874 71.2485C198.781 71.2485 198.781 71.2485 198.686 71.2486C198.369 71.2487 198.053 71.2488 197.737 71.249C195.445 71.25 193.154 71.2495 190.863 71.2481C188.593 71.2467 186.322 71.246 184.052 71.246C183.91 71.246 183.768 71.246 183.625 71.246C183.053 71.246 182.48 71.246 181.908 71.246C180.308 71.2461 178.707 71.246 177.107 71.2459C177.034 71.2459 176.961 71.2459 176.886 71.2459C174.563 71.2457 172.24 71.245 169.917 71.244C169.842 71.244 169.766 71.244 169.689 71.2439C168.465 71.2434 167.241 71.2429 166.017 71.2423C161.162 71.2402 156.308 71.2391 151.454 71.2392C151.301 71.2392 151.147 71.2392 150.994 71.2392C150.687 71.2392 150.381 71.2392 150.075 71.2393C149.388 71.2393 148.7 71.2393 148.013 71.2393C147.861 71.2393 147.709 71.2393 147.557 71.2393C143.493 71.2394 139.428 71.2387 135.364 71.2377C135.293 71.2377 135.222 71.2376 135.149 71.2376C133.856 71.2373 133.856 71.2373 133.223 71.2372C131.662 71.2368 130.101 71.2365 128.54 71.2364C128.434 71.2364 128.434 71.2364 128.327 71.2364C128.043 71.2364 127.759 71.2364 127.476 71.2364C124.845 71.2363 122.214 71.2357 119.584 71.2341C119.332 71.2339 119.08 71.2338 118.828 71.2337C118.766 71.2336 118.704 71.2336 118.64 71.2335C117.66 71.233 116.679 71.2329 115.699 71.2331C114.735 71.2333 113.771 71.2329 112.808 71.2319C112.292 71.2314 111.777 71.2311 111.261 71.2316C110.792 71.2319 110.323 71.2316 109.855 71.2307C109.686 71.2305 109.517 71.2305 109.348 71.2309C109.119 71.2313 108.89 71.2308 108.662 71.23C108.596 71.2304 108.531 71.2307 108.464 71.2311C107.899 71.2274 107.301 71.18 106.84 70.8194C106.84 70.7678 106.84 70.7162 106.84 70.6631C106.687 70.6373 106.534 70.6115 106.377 70.5849C106.377 70.5333 106.377 70.4817 106.377 70.4286C106.319 70.4092 106.262 70.3899 106.203 70.37C105.972 70.2641 105.843 70.1542 105.681 69.9596C105.681 69.908 105.681 69.8564 105.681 69.8032C105.553 69.7517 105.426 69.7001 105.294 69.6469C105.294 69.5437 105.294 69.4405 105.294 69.3342C105.218 69.3084 105.141 69.2827 105.062 69.2561C104.932 69.1486 104.932 69.1486 104.83 69.0216C104.83 68.9442 104.83 68.8668 104.83 68.7871C104.779 68.7871 104.728 68.7871 104.676 68.7871C104.676 68.7097 104.676 68.6323 104.676 68.5526C104.625 68.5526 104.574 68.5526 104.521 68.5526C104.47 68.3978 104.419 68.243 104.367 68.0836C104.315 68.0836 104.264 68.0836 104.212 68.0836C104.135 67.9272 104.057 67.7709 103.98 67.6146C103.942 67.5452 103.903 67.4759 103.864 67.4045C103.702 67.0435 103.611 66.6693 103.516 66.2857C103.465 66.3115 103.414 66.3373 103.361 66.3639C103.361 66.4929 103.361 66.6218 103.361 66.7547C103.31 66.7547 103.259 66.7547 103.207 66.7547C103.216 66.8345 103.216 66.8345 103.226 66.9159C103.204 67.1762 103.111 67.3338 102.977 67.5535C102.867 67.7466 102.805 67.9487 102.743 68.1617C102.692 68.1617 102.641 68.1617 102.588 68.1617C102.588 68.2391 102.588 68.3165 102.588 68.3962C102.537 68.3962 102.486 68.3962 102.434 68.3962C102.411 68.4559 102.389 68.5155 102.366 68.577C102.279 68.7871 102.279 68.7871 102.125 69.0216C102.074 69.0216 102.023 69.0216 101.97 69.0216C101.97 69.0732 101.97 69.1248 101.97 69.1779C101.919 69.1779 101.868 69.1779 101.815 69.1779C101.79 69.2811 101.764 69.3843 101.738 69.4906C101.661 69.4906 101.585 69.4906 101.506 69.4906C101.506 69.5422 101.506 69.5938 101.506 69.6469C101.455 69.6469 101.404 69.6469 101.351 69.6469C101.351 69.6985 101.351 69.7501 101.351 69.8032C101.216 69.9693 101.216 69.9693 101.042 70.1159C100.94 70.1159 100.838 70.1159 100.733 70.1159C100.733 70.1675 100.733 70.2191 100.733 70.2722C100.501 70.4286 100.501 70.4286 100.269 70.4286C100.269 70.4802 100.269 70.5318 100.269 70.5849C100.181 70.6075 100.094 70.6301 100.003 70.6533C99.9125 70.6823 99.8216 70.7113 99.728 70.7412C99.7025 70.7928 99.677 70.8444 99.6507 70.8976C99.4964 70.9614 99.4964 70.9614 99.3076 71.0197C99.0483 71.1008 99.0483 71.1008 98.8003 71.2103C98.4079 71.2817 98.0374 71.2955 97.6407 71.2884C97.6151 71.3658 97.5896 71.4432 97.5633 71.5229C90.5986 71.5229 83.6339 71.5229 76.4581 71.5229C76.4326 71.4713 76.4071 71.4197 76.3808 71.3666C76.2459 71.2984 76.2459 71.2984 76.0861 71.2444C76.033 71.225 75.9799 71.2056 75.9251 71.1855C75.7689 71.1342 75.6129 71.092 75.4531 71.0539C75.4531 71.0023 75.4531 70.9507 75.4531 70.8976C75.3256 70.8718 75.198 70.846 75.0666 70.8194C75.0666 70.7678 75.0666 70.7162 75.0666 70.6631C74.998 70.6437 74.9295 70.6244 74.8588 70.6045C74.5923 70.5028 74.4301 70.3811 74.2162 70.1941C74.1396 70.1425 74.0631 70.0909 73.9843 70.0377C73.9587 69.9604 73.9332 69.883 73.9069 69.8032C73.8559 69.7791 73.8049 69.7549 73.7523 69.73C73.5977 69.6469 73.5977 69.6469 73.5397 69.4808C73.5302 69.4083 73.5302 69.4083 73.5204 69.3342C73.4439 69.3342 73.3673 69.3342 73.2885 69.3342C73.1813 69.2029 73.1813 69.2029 73.0807 69.0313C73.0469 68.9751 73.0131 68.9189 72.9783 68.861C72.9019 68.7089 72.9019 68.7089 72.9019 68.5526C72.8254 68.5268 72.7489 68.501 72.67 68.4744C72.6445 68.3454 72.619 68.2165 72.5927 68.0836C72.5417 68.0836 72.4907 68.0836 72.4381 68.0836C72.1435 67.5225 71.8962 66.981 71.7423 66.3639C71.5663 66.5418 71.5553 66.6163 71.5104 66.8573C71.4567 67.1242 71.3898 67.3652 71.2785 67.6146C71.2274 67.6146 71.1764 67.6146 71.1238 67.6146C71.1127 67.6613 71.1015 67.7081 71.09 67.7562C71.0553 67.893 71.0134 68.0278 70.9692 68.1617C70.9182 68.1617 70.8672 68.1617 70.8146 68.1617C70.8082 68.2053 70.8019 68.2488 70.7953 68.2936C70.7199 68.5285 70.582 68.6755 70.4281 68.8652C70.4026 68.9426 70.377 69.02 70.3508 69.0997C70.233 69.217 70.233 69.217 70.0898 69.3342C69.9472 69.452 69.8126 69.5655 69.6858 69.7006C69.5777 69.8032 69.5777 69.8032 69.4231 69.8032C69.4231 69.8548 69.4231 69.9064 69.4231 69.9596C69.3736 69.9821 69.3242 70.0047 69.2733 70.028C69.1021 70.1025 69.1021 70.1025 69.0365 70.2722C68.96 70.2722 68.8834 70.2722 68.8046 70.2722C68.8046 70.3238 68.8046 70.3754 68.8046 70.4286C68.7233 70.4624 68.6419 70.4963 68.5582 70.5312C68.3766 70.6089 68.2239 70.6881 68.0557 70.795C67.8769 70.8976 67.8769 70.8976 67.5676 70.8976C67.5676 70.9492 67.5676 71.0008 67.5676 71.0539C67.5016 71.0643 67.4355 71.0747 67.3674 71.0854C67.282 71.0992 67.1966 71.113 67.1086 71.1272C67.0234 71.1408 66.9382 71.1544 66.8504 71.1684C66.6474 71.1882 66.6474 71.1882 66.5626 71.2884C66.3562 71.2995 66.151 71.2917 65.9442 71.2884C65.9442 71.34 65.9442 71.3916 65.9442 71.4448C65.7618 71.5369 65.654 71.5327 65.4506 71.5326C65.3788 71.5328 65.307 71.533 65.233 71.5332C65.1136 71.5329 65.1136 71.5329 64.9918 71.5325C64.9074 71.5326 64.8231 71.5327 64.7361 71.5328C64.4501 71.533 64.164 71.5327 63.8779 71.5323C63.6721 71.5324 63.4663 71.5324 63.2605 71.5325C62.8113 71.5327 62.3621 71.5326 61.9129 71.5322C61.2449 71.5318 60.577 71.5317 59.909 71.5318C58.7855 71.5319 57.6621 71.5317 56.5386 71.5312C55.4258 71.5307 54.3129 71.5304 53.2001 71.5303C53.0964 71.5303 53.0964 71.5303 52.9906 71.5303C52.6396 71.5303 52.2886 71.5303 51.9376 71.5303C49.4497 71.5301 46.9617 71.5296 44.4737 71.5288C42.0562 71.5281 39.6387 71.5275 37.2213 71.5272C37.1468 71.5272 37.0723 71.5272 36.9956 71.5272C36.2476 71.5271 35.4997 71.527 34.7518 71.5269C33.2281 71.5267 31.7044 71.5265 30.1807 71.5262C30.0756 71.5262 30.0756 71.5262 29.9683 71.5262C25.2874 71.5255 20.6065 71.5242 15.9256 71.5229C15.9257 71.4782 15.9258 71.4334 15.9259 71.3873C15.9318 68.7293 15.934 66.0713 15.9315 63.4133C15.9313 63.0935 15.931 62.7736 15.9308 62.4538C15.9307 62.3902 15.9307 62.3265 15.9306 62.2609C15.9299 61.2328 15.9316 60.2047 15.9343 59.1765C15.9369 58.12 15.9369 57.0635 15.9345 56.007C15.9331 55.356 15.9337 54.7052 15.937 54.0543C15.9391 53.6068 15.9385 53.1592 15.936 52.7117C15.9347 52.4542 15.9347 52.1969 15.9372 51.9394C15.9478 50.7299 15.8426 49.8198 15.2333 48.7661C15.0416 48.4193 14.9153 48.0395 14.7804 47.6673C14.7371 47.5495 14.7371 47.5495 14.693 47.4293C14.4936 46.8752 14.3324 46.322 14.2057 45.7467C14.1529 45.4973 14.1529 45.4973 14.0741 45.278C13.8452 44.5632 13.7362 43.8083 13.6063 43.0701C13.5905 42.9829 13.5746 42.8956 13.5583 42.8058C12.886 38.9297 13.2412 34.7666 13.7769 30.8987C13.9065 29.9618 14.0124 29.048 13.9678 28.1008C13.9036 26.6986 13.9103 25.6554 14.785 24.492C14.9251 24.3039 15.0538 24.1111 15.1815 23.9143C15.4218 23.5454 15.6711 23.1838 15.9256 22.8248C15.9579 22.779 15.9903 22.7332 16.0237 22.686C16.4374 22.1045 16.888 21.5595 17.3501 21.0174C17.4402 20.9087 17.5282 20.7983 17.615 20.6869C18.0769 20.0983 18.5832 19.569 19.1109 19.0409C19.2551 18.8964 19.3988 18.7514 19.5423 18.6062C19.9984 18.1464 20.4548 17.6914 20.9506 17.2749C20.9973 17.2354 21.0441 17.1958 21.0922 17.1551C21.4537 16.8517 21.8204 16.555 22.1876 16.2588C22.2387 16.2174 22.2898 16.1761 22.3425 16.1335C23.3068 15.3582 24.3247 14.6703 25.3572 13.9919C25.4212 13.9497 25.4852 13.9075 25.5511 13.864C26.3882 13.3134 27.2451 12.8021 28.1146 12.3055C28.8923 11.8587 29.6346 11.3644 30.3533 10.8261C30.4018 10.7899 30.4504 10.7537 30.5004 10.7163C31.3306 10.0939 31.3306 10.0939 32.083 9.38006C32.246 9.21755 32.4091 9.05525 32.5723 8.89304C32.7073 8.76191 32.7073 8.76191 32.7788 8.59838C32.8298 8.59838 32.8809 8.59838 32.9334 8.59838C32.9508 8.55788 32.9681 8.51737 32.986 8.47564C33.0976 8.26804 33.2315 8.08507 33.3726 7.89713C35.0618 5.64657 35.9777 2.80899 36.1804 0Z" fill="#015CCC"/>
<path d="M182.77 46.9626C182.837 46.9621 182.904 46.9617 182.973 46.9612C183.114 46.9605 183.256 46.96 183.397 46.9597C183.61 46.9589 183.823 46.9565 184.036 46.954C184.832 46.9492 185.541 47.006 186.314 47.2129C186.436 47.2382 186.558 47.2629 186.681 47.2862C186.992 47.3563 187.275 47.4724 187.568 47.598C187.901 47.7283 188.244 47.8198 188.587 47.9143C188.653 47.9408 188.719 47.9673 188.787 47.9946C188.813 48.072 188.838 48.1494 188.865 48.2291C188.929 48.2356 188.992 48.242 189.058 48.2486C189.388 48.3201 189.653 48.4575 189.947 48.6199C189.947 48.6715 189.947 48.7231 189.947 48.7763C190.075 48.8021 190.202 48.8279 190.334 48.8544C190.334 48.906 190.334 48.9576 190.334 49.0108C190.487 49.0366 190.64 49.0624 190.797 49.0889C190.797 49.1405 190.797 49.1921 190.797 49.2453C190.848 49.2453 190.9 49.2453 190.952 49.2453C190.952 49.2969 190.952 49.3485 190.952 49.4016C191.008 49.421 191.064 49.4403 191.121 49.4602C191.36 49.5675 191.533 49.6927 191.725 49.8706C191.725 49.9222 191.725 49.9738 191.725 50.027C191.792 50.0608 191.792 50.0608 191.86 50.0953C191.947 50.1389 191.947 50.1389 192.034 50.1833C192.09 50.2059 192.146 50.2284 192.204 50.2517C192.344 50.3396 192.344 50.3396 192.402 50.5057C192.408 50.5541 192.414 50.6025 192.421 50.6523C192.497 50.6523 192.574 50.6523 192.653 50.6523C192.822 50.794 192.822 50.794 192.962 50.965C192.962 51.0423 192.962 51.1197 192.962 51.1995C193.013 51.1995 193.064 51.1995 193.117 51.1995C193.117 51.251 193.117 51.3026 193.117 51.3558C193.283 51.2915 193.283 51.2915 193.344 51.1311C193.542 50.7302 193.956 50.4402 194.354 50.2615C194.354 50.2099 194.354 50.1583 194.354 50.1051C194.624 49.8508 194.848 49.6743 195.204 49.5579C195.204 49.5064 195.204 49.4548 195.204 49.4016C195.334 49.3009 195.334 49.3009 195.504 49.1964C195.559 49.1616 195.615 49.1267 195.672 49.0908C195.823 49.0108 195.823 49.0108 195.977 49.0108C195.977 48.9592 195.977 48.9076 195.977 48.8544C196.039 48.8319 196.101 48.8093 196.166 48.786C196.374 48.719 196.374 48.719 196.441 48.5418C196.609 48.4581 196.609 48.4581 196.818 48.3757C196.886 48.3481 196.955 48.3205 197.025 48.292C197.214 48.2291 197.214 48.2291 197.446 48.2291C197.472 48.1517 197.497 48.0743 197.523 47.9946C197.649 47.9287 197.649 47.9287 197.811 47.8774C197.87 47.858 197.93 47.8387 197.991 47.8187C198.053 47.7994 198.116 47.78 198.18 47.7601C198.241 47.7408 198.301 47.7214 198.363 47.7015C198.485 47.6622 198.608 47.6233 198.73 47.5848C198.914 47.5258 199.097 47.4626 199.279 47.3989C199.546 47.3084 199.805 47.2477 200.084 47.208C200.327 47.1731 200.545 47.1326 200.778 47.0552C201.12 46.9553 201.45 46.9573 201.804 46.9604C201.872 46.9605 201.94 46.9605 202.01 46.9605C202.154 46.9608 202.297 46.9614 202.441 46.9623C202.659 46.9638 202.877 46.9639 203.094 46.9639C203.234 46.9643 203.374 46.9648 203.514 46.9653C203.579 46.9654 203.643 46.9655 203.71 46.9656C204.102 46.9687 204.479 47.0002 204.868 47.0566C204.868 47.1082 204.868 47.1598 204.868 47.2129C204.943 47.2097 205.017 47.2065 205.095 47.2032C205.443 47.2017 205.768 47.2829 206.105 47.3693C206.105 47.4209 206.105 47.4725 206.105 47.5256C206.18 47.5347 206.256 47.5437 206.335 47.5531C206.664 47.6009 206.976 47.6901 207.293 47.7894C207.349 47.8057 207.405 47.8221 207.463 47.8389C207.605 47.8832 207.744 47.9382 207.883 47.9946C207.908 48.072 207.934 48.1494 207.96 48.2291C208.056 48.2388 208.056 48.2388 208.153 48.2486C208.483 48.3201 208.748 48.4575 209.042 48.6199C209.042 48.6715 209.042 48.7231 209.042 48.7763C209.17 48.8021 209.297 48.8279 209.429 48.8544C209.429 48.906 209.429 48.9576 209.429 49.0108C209.513 49.0422 209.513 49.0422 209.598 49.0743C209.815 49.167 210.007 49.2668 210.202 49.4016C210.202 49.4532 210.202 49.5048 210.202 49.5579C210.255 49.5741 210.307 49.5902 210.361 49.6068C210.691 49.7629 211.041 50.0032 211.207 50.3396C211.274 50.3711 211.274 50.3711 211.342 50.4031C211.574 50.527 211.728 50.6905 211.903 50.8868C211.903 50.9384 211.903 50.99 211.903 51.0431C211.954 51.0431 212.005 51.0431 212.057 51.0431C212.067 51.1157 212.067 51.1157 212.077 51.1897C212.096 51.2445 212.115 51.2993 212.135 51.3558C212.178 51.3745 212.222 51.3933 212.267 51.4126C212.526 51.5585 212.676 51.7846 212.85 52.0202C212.885 52.0667 212.921 52.1131 212.957 52.161C213.217 52.5072 213.217 52.5072 213.217 52.6846C213.268 52.6846 213.319 52.6846 213.372 52.6846C213.526 52.9191 213.526 52.9191 213.526 53.1536C213.577 53.1536 213.628 53.1536 213.681 53.1536C213.913 53.6031 213.913 53.6031 213.913 53.779C213.964 53.779 214.015 53.779 214.067 53.779C214.133 53.9023 214.197 54.0262 214.261 54.1503C214.296 54.2192 214.332 54.2881 214.369 54.3591C214.454 54.5606 214.454 54.5606 214.454 54.8733C214.505 54.8733 214.556 54.8733 214.608 54.8733C214.64 54.9604 214.672 55.0474 214.705 55.1371C214.798 55.3902 214.898 55.6399 215 55.8895C215.097 56.132 215.177 56.3677 215.237 56.6223C215.289 56.8901 215.289 56.8901 215.381 57.059C215.911 58.1395 215.812 59.6256 215.8 60.7948C215.797 61.0711 215.797 61.3472 215.797 61.6235C215.796 61.8019 215.795 61.9803 215.794 62.1587C215.794 62.2399 215.794 62.3211 215.794 62.4048C215.793 62.4821 215.792 62.5594 215.791 62.6391C215.79 62.7058 215.789 62.7725 215.789 62.8412C215.759 63.1854 215.681 63.5237 215.613 63.8625C214.721 63.8625 213.828 63.8625 212.908 63.8625C212.908 63.3935 212.908 63.3935 212.985 63.3154C213.003 63.1179 213.018 62.9221 213.028 62.7242C213.032 62.6687 213.035 62.6131 213.039 62.5558C213.047 62.4182 213.055 62.2805 213.062 62.1429C213.113 62.1429 213.164 62.1429 213.217 62.1429C213.217 61.369 213.217 60.5951 213.217 59.7978C213.166 59.7978 213.115 59.7978 213.062 59.7978C213.058 59.7197 213.053 59.6417 213.048 59.5612C213.042 59.4603 213.035 59.3595 213.028 59.2556C213.022 59.1549 213.016 59.0542 213.009 58.9505C213.012 58.7144 213.012 58.7144 212.908 58.6253C212.909 58.5625 212.911 58.4996 212.913 58.4348C212.93 58.2213 212.93 58.2213 212.753 58.0782C212.721 57.8577 212.721 57.8577 212.705 57.5994C212.699 57.5137 212.693 57.4281 212.687 57.3399C212.683 57.274 212.68 57.2081 212.676 57.1402C212.625 57.1402 212.574 57.1402 212.521 57.1402C212.396 56.9391 212.363 56.8528 212.396 56.6125C212.411 56.5545 212.427 56.4965 212.444 56.4367C212.367 56.4367 212.291 56.4367 212.212 56.4367C212.186 56.2561 212.161 56.0755 212.135 55.8895C212.084 55.8895 212.033 55.8895 211.98 55.8895C211.98 55.8121 211.98 55.7347 211.98 55.655C211.929 55.655 211.878 55.655 211.825 55.655C211.825 55.5518 211.825 55.4486 211.825 55.3423C211.774 55.3423 211.723 55.3423 211.671 55.3423C211.593 55.1078 211.516 54.8733 211.439 54.6388C211.388 54.6388 211.337 54.6388 211.284 54.6388C211.259 54.5614 211.233 54.484 211.207 54.4043C211.13 54.3527 211.054 54.3011 210.975 54.248C210.965 54.1996 210.956 54.1512 210.946 54.1014C210.909 53.9154 210.909 53.9154 210.714 53.7887C210.482 53.5991 210.404 53.4236 210.279 53.1536C210.228 53.1278 210.177 53.102 210.125 53.0755C210.125 53.0239 210.125 52.9723 210.125 52.9191C210.074 52.9191 210.023 52.9191 209.97 52.9191C209.867 52.8049 209.867 52.8049 209.753 52.6553C209.554 52.4113 209.411 52.3291 209.12 52.2156C209.018 52.1057 209.018 52.1057 208.917 51.9762C208.754 51.7302 208.754 51.7302 208.501 51.6685C208.501 51.6169 208.501 51.5653 208.501 51.5121C208.45 51.5121 208.399 51.5121 208.346 51.5121C208.346 51.4605 208.346 51.4089 208.346 51.3558C208.298 51.3416 208.25 51.3274 208.2 51.3127C208.137 51.2931 208.073 51.2734 208.008 51.2532C207.945 51.2342 207.883 51.2151 207.818 51.1955C207.651 51.1213 207.651 51.1213 207.496 50.8868C207.31 50.7908 207.31 50.7908 207.1 50.7158C207.03 50.6889 206.959 50.662 206.887 50.6343C206.833 50.6144 206.779 50.5946 206.723 50.5741C206.723 50.5225 206.723 50.4709 206.723 50.4178C206.57 50.4178 206.417 50.4178 206.259 50.4178C206.259 50.3662 206.259 50.3146 206.259 50.2615C206.165 50.2518 206.071 50.2421 205.974 50.2321C205.713 50.1998 205.494 50.1406 205.254 50.027C205.254 49.9754 205.254 49.9238 205.254 49.8706C204.999 49.8706 204.744 49.8706 204.481 49.8706C204.481 49.8448 204.481 49.819 204.481 49.7924C203.282 49.6706 202.046 49.651 200.848 49.7924C200.822 49.8182 200.797 49.844 200.77 49.8706C200.59 49.8738 200.409 49.8739 200.229 49.8706C200.229 49.9222 200.229 49.9738 200.229 50.027C200.127 50.027 200.025 50.027 199.92 50.027C199.92 50.0785 199.92 50.1301 199.92 50.1833C199.639 50.2091 199.359 50.2349 199.069 50.2615C199.069 50.313 199.069 50.3646 199.069 50.4178C198.967 50.4178 198.865 50.4178 198.76 50.4178C198.76 50.4694 198.76 50.521 198.76 50.5741C198.624 50.6398 198.487 50.7048 198.35 50.7695C198.235 50.824 198.235 50.824 198.119 50.8795C197.91 50.965 197.91 50.965 197.678 50.965C197.652 51.0423 197.627 51.1197 197.601 51.1995C197.447 51.2803 197.293 51.3583 197.137 51.434C197.058 51.5107 196.98 51.5884 196.905 51.6685C196.854 51.6685 196.803 51.6685 196.75 51.6685C196.75 51.7201 196.75 51.7716 196.75 51.8248C196.698 51.8377 196.645 51.8506 196.591 51.8639C196.305 52.0114 196.157 52.2067 195.954 52.4535C195.798 52.6351 195.625 52.7736 195.436 52.9191C195.371 52.9868 195.305 53.0546 195.238 53.1243C195.068 53.2918 194.947 53.362 194.74 53.4663C194.685 53.5461 194.685 53.5461 194.629 53.6275C194.508 53.779 194.508 53.779 194.334 53.8376C194.082 53.8608 193.834 53.8622 193.581 53.8571C193.581 53.9087 193.581 53.9603 193.581 54.0135C193.3 54.0135 193.019 54.0135 192.73 54.0135C192.73 53.9619 192.73 53.9103 192.73 53.8571C192.66 53.856 192.59 53.8549 192.518 53.8538C192.427 53.8501 192.336 53.8463 192.242 53.8425C192.152 53.8398 192.061 53.837 191.968 53.8342C191.725 53.779 191.725 53.779 191.591 53.5894C191.559 53.523 191.527 53.4566 191.493 53.3881C191.417 53.3365 191.34 53.285 191.261 53.2318C191.261 53.1802 191.261 53.1286 191.261 53.0755C191.185 53.0497 191.108 53.0239 191.029 52.9973C190.925 52.868 190.822 52.7377 190.72 52.6065C190.515 52.4172 190.515 52.4172 190.256 52.372C190.256 52.3204 190.256 52.2688 190.256 52.2156C190.205 52.2156 190.154 52.2156 190.102 52.2156C190.102 52.164 190.102 52.1124 190.102 52.0593C190.051 52.0593 190 52.0593 189.947 52.0593C189.947 52.0077 189.947 51.9561 189.947 51.903C189.871 51.8772 189.794 51.8514 189.715 51.8248C189.715 51.7732 189.715 51.7216 189.715 51.6685C189.613 51.6685 189.511 51.6685 189.406 51.6685C189.327 51.5922 189.25 51.5135 189.174 51.434C188.997 51.3221 188.816 51.2226 188.633 51.1213C188.633 51.0697 188.633 51.0181 188.633 50.965C188.531 50.965 188.429 50.965 188.324 50.965C188.324 50.9134 188.324 50.8618 188.324 50.8086C188.145 50.7828 187.966 50.757 187.782 50.7305C187.782 50.6789 187.782 50.6273 187.782 50.5741C187.736 50.5628 187.69 50.5516 187.642 50.5399C187.507 50.5048 187.374 50.4624 187.241 50.4178C187.241 50.3662 187.241 50.3146 187.241 50.2615C187.149 50.2518 187.056 50.2421 186.961 50.2321C186.679 50.1971 186.426 50.1282 186.159 50.027C186.159 49.9754 186.159 49.9238 186.159 49.8706C185.929 49.8706 185.7 49.8706 185.463 49.8706C185.463 49.819 185.463 49.7674 185.463 49.7143C184.239 49.7143 183.014 49.7143 181.752 49.7143C181.752 49.7659 181.752 49.8175 181.752 49.8706C181.523 49.8706 181.293 49.8706 181.057 49.8706C181.057 49.9222 181.057 49.9738 181.057 50.027C180.929 50.027 180.801 50.027 180.67 50.027C180.67 50.0785 180.67 50.1301 180.67 50.1833C180.326 50.222 180.326 50.222 179.974 50.2615C179.974 50.313 179.974 50.3646 179.974 50.4178C179.847 50.4178 179.719 50.4178 179.588 50.4178C179.588 50.4694 179.588 50.521 179.588 50.5741C179.527 50.6005 179.467 50.6269 179.404 50.6541C179.326 50.689 179.248 50.7238 179.167 50.7598C179.089 50.7942 179.011 50.8287 178.931 50.8642C178.728 50.9455 178.728 50.9455 178.66 51.1213C178.5 51.1879 178.5 51.1879 178.307 51.2483C178.243 51.2687 178.18 51.289 178.114 51.31C178.064 51.3251 178.015 51.3402 177.964 51.3558C177.964 51.4074 177.964 51.459 177.964 51.5121C177.862 51.5121 177.76 51.5121 177.655 51.5121C177.634 51.5589 177.614 51.6056 177.592 51.6538C177.464 51.8932 177.337 52.0219 177.099 52.1521C176.776 52.3626 176.53 52.6411 176.263 52.9191C176.196 52.9836 176.13 53.0481 176.061 53.1146C175.859 53.3289 175.692 53.556 175.524 53.797C175.413 53.9353 175.413 53.9353 175.181 54.0916C175.153 54.1953 175.127 54.2995 175.104 54.4043C175.027 54.443 175.027 54.443 174.949 54.4825C174.884 54.6359 174.836 54.7921 174.785 54.9509C174.71 55.1245 174.618 55.2112 174.485 55.3423C174.393 55.5846 174.393 55.5846 174.331 55.8113C174.28 55.8113 174.229 55.8113 174.176 55.8113C174.151 55.9661 174.125 56.1209 174.099 56.2803C174.022 56.3061 173.946 56.3319 173.867 56.3585C173.841 56.5648 173.816 56.7712 173.79 56.9838C173.739 56.9838 173.688 56.9838 173.635 56.9838C173.638 57.0515 173.641 57.1192 173.645 57.189C173.635 57.4625 173.576 57.6674 173.48 57.9218C173.429 57.9218 173.378 57.9218 173.326 57.9218C173.3 58.3603 173.275 58.7989 173.248 59.2507C173.197 59.2507 173.146 59.2507 173.094 59.2507C173.094 60.3857 173.094 61.5206 173.094 62.69C173.145 62.69 173.196 62.69 173.248 62.69C173.274 63.077 173.299 63.4639 173.326 63.8625C172.458 63.8625 171.591 63.8625 170.697 63.8625C170.573 63.6113 170.615 63.3594 170.62 63.0809C170.569 63.0809 170.518 63.0809 170.465 63.0809C170.394 62.3778 170.376 61.6817 170.378 60.9752C170.378 60.8761 170.378 60.777 170.377 60.6749C170.378 60.0403 170.407 59.4136 170.465 58.7817C170.516 58.7817 170.567 58.7817 170.62 58.7817C170.616 58.6974 170.613 58.6132 170.609 58.5264C170.609 58.0847 170.704 57.6673 170.799 57.2379C170.815 57.1576 170.832 57.0773 170.849 56.9945C170.874 56.8786 170.874 56.8786 170.899 56.7603C170.922 56.6558 170.922 56.6558 170.945 56.5491C171.012 56.3421 171.106 56.2155 171.238 56.0458C171.301 55.8719 171.357 55.6958 171.408 55.5182C171.434 55.4267 171.461 55.3352 171.488 55.2409C171.508 55.1712 171.527 55.1015 171.548 55.0296C171.599 55.0296 171.65 55.0296 171.702 55.0296C171.712 54.9877 171.721 54.9458 171.731 54.9026C171.789 54.6807 171.861 54.4651 171.934 54.248C171.985 54.248 172.036 54.248 172.089 54.248C172.1 54.2012 172.111 54.1545 172.123 54.1063C172.157 53.9696 172.199 53.8347 172.243 53.7008C172.294 53.7008 172.345 53.7008 172.398 53.7008C172.404 53.6605 172.411 53.6202 172.417 53.5787C172.5 53.3065 172.64 53.0855 172.785 52.841C172.836 52.841 172.887 52.841 172.939 52.841C172.957 52.7878 172.974 52.7346 172.992 52.6797C173.133 52.3615 173.317 51.9854 173.635 51.8248C173.66 51.7474 173.686 51.67 173.712 51.5903C173.763 51.5903 173.814 51.5903 173.867 51.5903C173.867 51.5387 173.867 51.4871 173.867 51.434C173.918 51.434 173.969 51.434 174.022 51.434C174.047 51.3566 174.073 51.2792 174.099 51.1995C174.15 51.1995 174.201 51.1995 174.253 51.1995C174.274 51.1527 174.295 51.106 174.316 51.0578C174.408 50.8869 174.493 50.7763 174.64 50.6523C174.691 50.6523 174.742 50.6523 174.795 50.6523C174.811 50.6071 174.826 50.562 174.843 50.5155C174.988 50.2754 175.181 50.179 175.413 50.027C175.478 49.9609 175.544 49.8948 175.611 49.8266C175.793 49.6432 175.966 49.5314 176.186 49.4016C176.212 49.35 176.237 49.2984 176.263 49.2453C176.443 49.1359 176.62 49.0323 176.805 48.9326C176.864 48.9004 176.923 48.8681 176.983 48.8349C177.114 48.7763 177.114 48.7763 177.268 48.7763C177.307 48.6602 177.307 48.6602 177.346 48.5418C177.514 48.4505 177.514 48.4505 177.723 48.3708C177.791 48.3439 177.859 48.317 177.93 48.2893C178.119 48.2291 178.119 48.2291 178.351 48.2291C178.376 48.1517 178.402 48.0743 178.428 47.9946C178.642 47.9088 178.642 47.9088 178.911 47.8334C179.283 47.7279 179.283 47.7279 179.645 47.5949C179.843 47.5163 179.996 47.5134 180.206 47.5256C180.206 47.474 180.206 47.4224 180.206 47.3693C180.295 47.3532 180.383 47.3372 180.474 47.3207C180.589 47.2995 180.705 47.2782 180.82 47.2569C180.878 47.2464 180.937 47.2358 180.997 47.225C181.282 47.194 181.282 47.194 181.52 47.0566C181.938 46.979 182.346 46.9648 182.77 46.9626Z" fill="#015CCC"/>
<path d="M132.893 75.1186C133.684 75.1186 134.475 75.1186 135.29 75.1186C135.315 76.6147 135.341 78.1108 135.367 79.6523C135.635 79.3427 135.635 79.3427 135.908 79.0269C136.754 78.2079 137.807 77.9408 138.956 77.9302C139.748 77.9685 140.531 78.1347 141.112 78.7118C141.778 79.5238 141.791 80.5481 141.835 81.5558C141.846 81.7986 141.862 81.9998 141.938 82.2318C142.74 82.4344 143.587 82.3583 144.412 82.3881C144.412 79.9892 144.412 77.5902 144.412 75.1186C145.305 75.1186 146.198 75.1186 147.118 75.1186C147.118 78.1366 147.118 81.1547 147.118 84.2641C146.322 84.2722 145.527 84.2803 144.707 84.2886C144.456 84.2921 144.206 84.2957 143.947 84.2994C143.748 84.3005 143.55 84.3015 143.351 84.3023C143.299 84.3033 143.248 84.3044 143.195 84.3054C143.043 84.3083 142.891 84.3084 142.739 84.3085C142.653 84.3094 142.567 84.3102 142.479 84.3111C142.173 84.249 142.058 84.1117 141.861 83.8733C141.836 83.8217 141.81 83.7701 141.784 83.717C141.682 83.8975 141.58 84.0781 141.475 84.2641C140.116 84.2751 138.757 84.2834 137.398 84.2884C136.767 84.2909 136.136 84.2942 135.505 84.2995C134.955 84.3042 134.405 84.3072 133.855 84.3083C133.564 84.3089 133.272 84.3103 132.981 84.3137C132.707 84.3169 132.432 84.3179 132.158 84.3172C132.01 84.3174 131.862 84.3199 131.714 84.3225C131.027 84.3175 130.621 84.1461 130.13 83.6625C130.098 83.6289 130.066 83.5953 130.033 83.5606C129.983 83.6058 129.934 83.6509 129.883 83.6974C129.407 84.0513 128.876 84.2696 128.283 84.2792C128.212 84.2805 128.141 84.2817 128.068 84.283C127.745 84.2865 127.422 84.2897 127.1 84.2915C126.93 84.2928 126.76 84.2949 126.59 84.2979C126.344 84.3022 126.098 84.3039 125.852 84.3051C125.777 84.3068 125.702 84.3086 125.624 84.3104C125.005 84.3085 124.645 84.1123 124.196 83.6925C124.139 83.6273 124.139 83.6273 124.08 83.5606C124.038 83.5918 123.996 83.6229 123.952 83.655C123.894 83.6964 123.836 83.7378 123.776 83.7805C123.719 83.8213 123.663 83.8621 123.605 83.9041C123.087 84.1991 122.585 84.2992 121.996 84.2957C121.898 84.2965 121.898 84.2965 121.798 84.2974C121.584 84.2988 121.371 84.2985 121.157 84.298C121.007 84.2984 120.857 84.2988 120.707 84.2993C120.394 84.3 120.081 84.2998 119.768 84.299C119.368 84.2981 118.968 84.2997 118.568 84.302C118.258 84.3034 117.949 84.3034 117.64 84.3029C117.493 84.3029 117.345 84.3034 117.198 84.3044C116.991 84.3055 116.785 84.3047 116.578 84.3034C116.518 84.3041 116.458 84.3049 116.396 84.3057C115.88 84.2987 115.396 84.155 115.02 83.7841C114.968 83.7025 114.968 83.7025 114.914 83.6193C114.877 83.564 114.841 83.5088 114.803 83.4519C114.777 83.4104 114.752 83.3689 114.726 83.3261C114.687 83.3582 114.647 83.3902 114.607 83.4232C114.554 83.4654 114.5 83.5075 114.446 83.5509C114.394 83.5926 114.342 83.6343 114.288 83.6773C113.655 84.0906 112.78 84.0374 112.062 83.9005C111.36 83.688 110.756 83.298 110.396 82.6388C109.945 81.627 109.958 80.4592 110.319 79.4178C110.628 78.7513 111.136 78.3728 111.803 78.1036C112.347 77.9322 112.853 77.9221 113.418 77.925C113.5 77.9251 113.582 77.9252 113.666 77.9253C113.926 77.9257 114.186 77.9267 114.446 77.9277C114.622 77.9281 114.799 77.9285 114.976 77.9288C115.408 77.9297 115.84 77.931 116.272 77.9326C116.272 77.9817 116.273 78.0308 116.273 78.0813C116.278 78.5924 116.285 79.1034 116.292 79.6144C116.295 79.805 116.297 79.9957 116.299 80.1864C116.301 80.4606 116.305 80.7347 116.31 81.0089C116.31 81.0941 116.311 81.1793 116.311 81.267C116.313 81.3468 116.314 81.4266 116.316 81.5088C116.317 81.5788 116.318 81.6487 116.318 81.7208C116.358 81.9738 116.416 82.1142 116.581 82.31C116.814 82.3673 116.814 82.3673 117.085 82.3556C117.136 82.3558 117.187 82.3559 117.239 82.3561C117.407 82.3563 117.575 82.3536 117.743 82.3509C117.86 82.3504 117.977 82.35 118.093 82.3498C118.401 82.3487 118.708 82.3453 119.016 82.3414C119.267 82.3386 119.518 82.3376 119.769 82.3366C120.068 82.3355 120.367 82.3335 120.666 82.3313C120.723 82.331 120.78 82.3306 120.839 82.3302C121.001 82.3289 121.162 82.3271 121.324 82.325C121.416 82.324 121.508 82.323 121.603 82.322C121.799 82.312 121.961 82.2898 122.147 82.2318C122.207 82.016 122.236 81.8204 122.241 81.5966C122.242 81.534 122.244 81.4715 122.245 81.407C122.247 81.3402 122.248 81.2734 122.249 81.2046C122.252 81.1012 122.252 81.1012 122.254 80.9957C122.259 80.7759 122.264 80.5561 122.268 80.3362C122.272 80.187 122.275 80.0378 122.278 79.8886C122.287 79.5232 122.294 79.1578 122.302 78.7924C123.169 78.7924 124.037 78.7924 124.931 78.7924C124.934 79.134 124.934 79.134 124.937 79.4825C124.94 79.7032 124.943 79.9239 124.947 80.1445C124.949 80.2978 124.95 80.4511 124.951 80.6044C124.953 80.8249 124.957 81.0453 124.961 81.2657C124.961 81.3684 124.961 81.3684 124.961 81.4732C124.968 81.7647 124.976 81.9461 125.13 82.1971C125.388 82.3531 125.578 82.3479 125.878 82.346C125.931 82.3459 125.985 82.3459 126.04 82.3458C126.154 82.3453 126.267 82.3441 126.38 82.3421C126.553 82.3393 126.726 82.3389 126.899 82.339C127.529 82.3679 127.529 82.3679 128.1 82.1536C128.233 81.8852 128.196 81.5767 128.202 81.281C128.204 81.1746 128.204 81.1746 128.207 81.0661C128.212 80.8391 128.216 80.6121 128.221 80.3851C128.224 80.2314 128.228 80.0777 128.231 79.924C128.239 79.5468 128.247 79.1697 128.255 78.7924C129.122 78.7924 129.99 78.7924 130.883 78.7924C130.887 79.0145 130.891 79.2366 130.895 79.4654C130.899 79.6807 130.903 79.8959 130.908 80.1111C130.911 80.2606 130.913 80.4102 130.916 80.5597C130.919 80.7747 130.924 80.9897 130.929 81.2046C130.93 81.3048 130.93 81.3048 130.931 81.407C130.933 81.4696 130.934 81.5321 130.936 81.5966C130.938 81.6789 130.938 81.6789 130.939 81.7628C130.964 81.9472 131.019 82.0735 131.115 82.2318C131.647 82.5008 132.299 82.3595 132.893 82.3881C132.893 79.9892 132.893 77.5902 132.893 75.1186ZM112.827 79.9894C112.638 80.346 112.622 80.6537 112.619 81.0495C112.618 81.1048 112.616 81.1602 112.614 81.2172C112.612 81.5697 112.649 81.7992 112.87 82.0755C113.121 82.1618 113.26 82.1828 113.508 82.0852C113.975 81.5116 113.812 80.508 113.798 79.8086C113.269 79.7465 113.269 79.7465 112.827 79.9894ZM136.43 80.8738C136.332 81.0134 136.238 81.1549 136.145 81.2987C136.101 81.3664 136.101 81.3664 136.057 81.4354C135.857 81.7602 135.785 82.0034 135.676 82.3881C136.799 82.3881 137.921 82.3881 139.078 82.3881C139.177 81.1661 139.177 81.1661 138.73 80.0285C137.83 79.5573 136.988 80.1398 136.43 80.8738Z" fill="#009379"/>
<path d="M78.7774 36.8167C78.7774 36.8683 78.7774 36.9199 78.7774 36.973C78.8236 36.9553 78.8699 36.9376 78.9175 36.9193C78.9733 36.9112 79.0291 36.9032 79.0866 36.8949C79.2026 36.9975 79.2026 36.9975 79.3185 37.1294C79.4809 37.2213 79.4809 37.2213 79.6278 37.2857C79.6278 37.3373 79.6278 37.3889 79.6278 37.442C79.7808 37.5194 79.7808 37.5194 79.937 37.5984C79.937 37.65 79.937 37.7016 79.937 37.7547C79.996 37.7741 80.055 37.7934 80.1158 37.8133C80.345 37.9211 80.4305 38.0043 80.5555 38.2237C80.5555 38.3011 80.5555 38.3785 80.5555 38.4582C80.6065 38.4582 80.6575 38.4582 80.7101 38.4582C80.9135 38.8425 81.067 39.2059 81.1739 39.6307C81.2026 39.7146 81.2313 39.7984 81.2609 39.8848C81.4668 40.7768 81.3062 41.873 80.8955 42.6914C80.7892 42.8525 80.6816 43.0028 80.5555 43.1482C80.752 43.1504 80.9484 43.1519 81.1449 43.1531C81.2276 43.1541 81.2276 43.1541 81.3119 43.1551C81.6368 43.1566 81.9353 43.126 82.2563 43.0701C82.4373 43.0907 82.6181 43.1156 82.7974 43.1482C82.8229 43.0966 82.8484 43.0451 82.8747 42.9919C82.8747 43.0435 82.8747 43.0951 82.8747 43.1482C82.9976 43.1313 82.9976 43.1313 83.123 43.114C83.2303 43.0994 83.3376 43.0847 83.4449 43.0701C83.4989 43.0626 83.5529 43.0552 83.6086 43.0475C84.0168 42.9919 84.0168 42.9919 84.189 42.9919C84.189 43.0435 84.189 43.0951 84.189 43.1482C84.3038 43.1095 84.3038 43.1095 84.4209 43.0701C84.6152 43.0634 84.8073 43.061 85.0016 43.0624C85.0579 43.0625 85.1142 43.0627 85.1722 43.0628C85.3518 43.0632 85.5314 43.0642 85.711 43.0652C85.8328 43.0656 85.9547 43.0659 86.0765 43.0663C86.3751 43.0671 86.6736 43.0685 86.9721 43.0701C86.9721 43.1217 86.9721 43.1732 86.9721 43.2264C87.0678 43.2103 87.1636 43.1942 87.2623 43.1775C87.7219 43.1258 88.1408 43.2131 88.5907 43.3046C88.7492 43.336 88.9077 43.3669 89.0664 43.3974C89.1356 43.4114 89.2049 43.4254 89.2762 43.4398C89.4491 43.4773 89.4491 43.4773 89.6006 43.3827C89.6006 43.4343 89.6006 43.4859 89.6006 43.5391C90.1363 43.5778 90.1363 43.5778 90.6829 43.6172C90.6829 43.6688 90.6829 43.7204 90.6829 43.7736C90.7299 43.7803 90.777 43.7871 90.8254 43.794C91.4959 43.9027 92.1269 44.1069 92.7702 44.3207C92.7702 44.3723 92.7702 44.4239 92.7702 44.4771C92.8233 44.4931 92.8764 44.5091 92.9312 44.5256C93.0008 44.5467 93.0705 44.5677 93.1423 44.5894C93.2113 44.6103 93.2804 44.6312 93.3515 44.6526C93.4934 44.6962 93.6346 44.7423 93.7752 44.7897C93.8007 44.8413 93.8263 44.8929 93.8525 44.9461C93.9386 44.9832 94.0247 45.0202 94.1135 45.0584C94.3643 45.1678 94.448 45.2273 94.6256 45.4151C94.6862 45.436 94.7468 45.457 94.8092 45.4786C95.0849 45.6047 95.209 45.8054 95.3987 46.0404C95.5263 46.1207 95.6548 46.1995 95.7853 46.2749C95.7853 46.3265 95.7853 46.3781 95.7853 46.4313C95.8331 46.4506 95.8809 46.4699 95.9302 46.4899C96.1216 46.6037 96.168 46.6953 96.2491 46.9003C96.3001 46.9003 96.3511 46.9003 96.4037 46.9003C96.6941 47.1563 96.8751 47.4 97.0222 47.7601C97.0222 47.8375 97.0222 47.9149 97.0222 47.9946C97.0732 47.9946 97.1242 47.9946 97.1768 47.9946C97.1768 48.1236 97.1768 48.2525 97.1768 48.3854C96.8725 48.3399 96.7154 48.1894 96.481 47.9946C96.042 47.6732 96.042 47.6732 95.5533 47.4474C95.5278 47.3958 95.5023 47.3442 95.476 47.2911C95.3034 47.213 95.3034 47.213 95.0943 47.1445C94.817 47.0475 94.5467 46.9454 94.2777 46.827C92.7862 46.2213 90.892 45.799 89.2814 45.8071C89.0654 45.806 88.8834 45.7732 88.6729 45.7278C87.9686 45.6486 87.2673 45.6425 86.5597 45.6525C86.4644 45.6535 86.4644 45.6535 86.3672 45.6545C86.3105 45.6554 86.2539 45.6563 86.1955 45.6572C86.0444 45.6496 86.0444 45.6496 85.8125 45.5714C85.6527 45.5781 85.4932 45.59 85.3341 45.6056C85.2081 45.6176 85.2081 45.6176 85.0795 45.6297C84.9831 45.6396 84.9831 45.6396 84.8847 45.6496C84.8847 45.598 84.8847 45.5464 84.8847 45.4932C84.7699 45.5706 84.7699 45.5706 84.6528 45.6496C84.524 45.6527 84.3951 45.653 84.2663 45.6496C84.2408 45.6754 84.2153 45.7012 84.189 45.7278C84.042 45.7493 83.8943 45.7662 83.7466 45.7812C83.6099 45.7956 83.6099 45.7956 83.4704 45.8103C83.2783 45.83 83.0863 45.8495 82.8942 45.869C82.3322 45.9248 82.3322 45.9248 81.7809 46.0426C81.3858 46.1434 80.9947 46.1742 80.5893 46.2065C80.5118 46.2133 80.4343 46.22 80.3545 46.227C79.9562 46.2604 79.5635 46.2829 79.1639 46.2749C79.1639 46.3265 79.1639 46.3781 79.1639 46.4313C79.0481 46.4214 79.0481 46.4214 78.9299 46.4114C78.8301 46.4034 78.7304 46.3955 78.6276 46.3873C78.528 46.3791 78.4285 46.371 78.3259 46.3626C78.2453 46.3594 78.1647 46.3563 78.0816 46.3531C78.0561 46.3789 78.0306 46.4047 78.0043 46.4313C77.8117 46.4369 77.6203 46.431 77.4278 46.4264C77.2337 46.4238 77.2337 46.4238 77.0612 46.4752C76.922 46.5094 76.922 46.5094 76.7674 46.4313C76.616 46.4264 76.616 46.4264 76.4445 46.438C76.3805 46.4414 76.3165 46.4448 76.2505 46.4484C76.15 46.4544 76.15 46.4544 76.0474 46.4606C75.9813 46.464 75.9152 46.4674 75.8471 46.4709C75.529 46.4889 75.2227 46.5111 74.9119 46.5876C74.9119 46.536 74.9119 46.4844 74.9119 46.4313C74.8354 46.4571 74.7589 46.4828 74.68 46.5094C74.4857 46.516 74.2936 46.5185 74.0993 46.5171C74.043 46.5169 73.9867 46.5168 73.9287 46.5167C73.7491 46.5163 73.5695 46.5153 73.3899 46.5143C73.2681 46.5139 73.1462 46.5136 73.0244 46.5132C72.7259 46.5124 72.4274 46.511 72.1288 46.5094C72.1288 46.4578 72.1288 46.4062 72.1288 46.3531C72.0571 46.366 71.9853 46.3789 71.9114 46.3922C71.1388 46.5147 70.3202 46.2401 69.5777 46.0404C69.5522 46.092 69.5266 46.1436 69.5004 46.1968C69.5004 46.1452 69.5004 46.0936 69.5004 46.0404C69.4047 46.0291 69.309 46.0178 69.2104 46.0062C69.0351 45.9846 68.8739 45.9601 68.7031 45.9134C68.554 45.868 68.554 45.868 68.3407 45.9623C68.3407 45.9107 68.3407 45.8591 68.3407 45.8059C68.253 45.7882 68.1653 45.7704 68.075 45.7522C67.6986 45.6676 67.329 45.5626 66.9588 45.4542C66.9009 45.4375 66.8429 45.4208 66.7832 45.4036C66.5252 45.3269 66.3242 45.2544 66.0988 45.1024C65.9661 45.0445 65.8323 44.9893 65.6977 44.9363C65.6281 44.9087 65.5584 44.8811 65.4867 44.8526C65.407 44.8215 65.407 44.8215 65.3257 44.7897C65.3257 44.7382 65.3257 44.6866 65.3257 44.6334C65.2523 44.6092 65.179 44.585 65.1034 44.5601C64.8618 44.4771 64.8618 44.4771 64.7072 44.3989C64.7072 44.3473 64.7072 44.2957 64.7072 44.2426C64.5022 44.1585 64.2988 44.0789 64.0888 44.0081C64.0888 43.9565 64.0888 43.9049 64.0888 43.8517C64.0409 43.8276 63.9931 43.8034 63.9438 43.7785C63.8375 43.7247 63.7312 43.671 63.6249 43.6172C63.6249 43.5656 63.6249 43.5141 63.6249 43.4609C63.5723 43.448 63.5197 43.4351 63.4655 43.4218C63.1812 43.2751 63.0313 43.0842 62.8298 42.838C62.7158 42.7015 62.5993 42.5807 62.4701 42.4594C62.3107 42.2884 62.3107 42.2884 62.3107 42.0539C62.2596 42.0539 62.2086 42.0539 62.156 42.0539C62.0665 41.7824 62.0734 41.5567 62.0787 41.2722C62.1553 41.298 62.2318 41.3238 62.3107 41.3504C62.3107 41.402 62.3107 41.4536 62.3107 41.5067C62.3944 41.5357 62.3944 41.5357 62.4798 41.5654C62.717 41.672 62.8817 41.8123 63.0837 41.9757C63.2909 42.0727 63.2909 42.0727 63.4703 42.1321C63.4703 42.1837 63.4703 42.2352 63.4703 42.2884C63.5798 42.326 63.6893 42.3634 63.7988 42.4008C63.8598 42.4216 63.9208 42.4425 63.9837 42.464C64.1466 42.5166 64.3089 42.5613 64.4753 42.6011C64.4753 42.6527 64.4753 42.7042 64.4753 42.7574C64.5288 42.7707 64.5823 42.784 64.6375 42.7977C64.7131 42.8166 64.7887 42.8356 64.8667 42.8551C64.9528 42.8767 65.0389 42.8982 65.1276 42.9205C65.3021 42.9657 65.4762 43.0131 65.6494 43.0634C66.8942 43.4217 68.2123 43.7135 69.5085 43.7626C69.738 43.7739 69.9631 43.8021 70.1908 43.8322C70.448 43.8636 70.7059 43.8806 70.9644 43.8957C71.0199 43.899 71.0755 43.9023 71.1327 43.9058C71.7482 43.9393 72.3631 43.9369 72.9792 43.9299C72.9792 43.9815 72.9792 44.0331 72.9792 44.0862C73.0558 44.0604 73.1323 44.0347 73.2112 44.0081C73.4885 44.0057 73.765 44.0133 74.0422 44.0206C74.305 44.0293 74.305 44.0293 74.5254 43.8517C74.4863 43.8206 74.4473 43.7895 74.407 43.7574C74.3568 43.716 74.3066 43.6746 74.2548 43.6319C74.2046 43.5911 74.1544 43.5503 74.1026 43.5082C73.9842 43.3827 73.9842 43.3827 73.9842 43.1482C73.9332 43.1482 73.8822 43.1482 73.8296 43.1482C73.8041 43.0193 73.7786 42.8903 73.7523 42.7574C73.7013 42.7574 73.6503 42.7574 73.5977 42.7574C73.5488 42.6649 73.5006 42.572 73.4528 42.4789C73.4124 42.4014 73.4124 42.4014 73.3712 42.3223C72.8943 41.2259 73.0546 40.1868 73.3658 39.0835C73.4168 39.0835 73.4678 39.0835 73.5204 39.0835C73.5253 39.0164 73.5302 38.9493 73.5352 38.8802C73.6113 38.5566 73.7673 38.3599 73.9794 38.1162C74.0146 38.0736 74.0499 38.031 74.0862 37.9871C74.1769 37.8799 74.2735 37.7777 74.3708 37.6765C74.4218 37.6765 74.4728 37.6765 74.5254 37.6765C74.5254 37.6249 74.5254 37.5734 74.5254 37.5202C74.6275 37.4944 74.7295 37.4686 74.8346 37.442C74.8346 37.3904 74.8346 37.3389 74.8346 37.2857C74.9112 37.2857 74.9877 37.2857 75.0666 37.2857C75.0666 37.2341 75.0666 37.1825 75.0666 37.1294C75.3308 36.9309 75.5117 36.8664 75.8397 36.8949C75.8397 36.8433 75.8397 36.7917 75.8397 36.7385C76.7656 36.359 77.856 36.4786 78.7774 36.8167Z" fill="#009379"/>
<path d="M201.002 75.1186C201.895 75.1186 202.788 75.1186 203.708 75.1186C203.709 75.323 203.711 75.5273 203.713 75.7379C203.718 76.4127 203.724 77.0876 203.73 77.7624C203.734 78.1716 203.738 78.5808 203.741 78.99C203.743 79.3849 203.747 79.7797 203.751 80.1745C203.753 80.3252 203.754 80.4759 203.755 80.6266C203.756 80.8376 203.758 81.0485 203.761 81.2594C203.761 81.3218 203.761 81.3843 203.761 81.4487C203.765 81.8652 203.765 81.8652 203.94 82.2318C204.656 82.5938 205.536 82.3602 206.336 82.3881C206.336 79.9892 206.336 77.5902 206.336 75.1186C207.229 75.1186 208.122 75.1186 209.042 75.1186C209.042 78.1366 209.042 81.1547 209.042 84.2641C208.2 84.2706 207.358 84.277 206.491 84.2837C206.094 84.288 206.094 84.288 205.689 84.2923C205.478 84.2932 205.267 84.294 205.056 84.2947C205.002 84.2955 204.948 84.2963 204.892 84.2972C204.146 84.3079 203.575 84.2884 203.012 83.7365C202.961 83.6785 202.91 83.6204 202.858 83.5606C202.783 83.6284 202.783 83.6284 202.708 83.6974C201.971 84.2448 201.215 84.2877 200.328 84.3001C200.214 84.3022 200.1 84.3054 199.986 84.3097C199.033 84.3453 199.033 84.3453 198.734 84.1396C198.605 83.9881 198.605 83.9881 198.451 83.717C198.349 83.8975 198.247 84.0781 198.142 84.2641C197.073 84.2732 196.003 84.2801 194.934 84.2844C194.438 84.2864 193.941 84.2892 193.445 84.2936C192.966 84.2979 192.486 84.3002 192.007 84.3012C191.824 84.3019 191.642 84.3034 191.459 84.3055C191.203 84.3083 190.947 84.3087 190.691 84.3085C190.615 84.3099 190.54 84.3113 190.462 84.3128C189.89 84.3084 189.598 84.1422 189.198 83.7431C189.148 83.6915 189.148 83.6915 189.097 83.6388C189.085 83.713 189.074 83.7871 189.063 83.8635C189.019 84.1078 189.019 84.1078 188.942 84.2641C187.258 84.2641 185.574 84.2641 183.84 84.2641C183.84 83.6451 183.84 83.026 183.84 82.3881C184.784 82.3881 185.728 82.3881 186.7 82.3881C186.692 82.048 186.684 81.7078 186.676 81.3573C186.674 81.2507 186.672 81.1441 186.67 81.0342C186.668 80.9495 186.665 80.8648 186.662 80.7775C186.66 80.6911 186.658 80.6047 186.656 80.5157C186.619 80.2513 186.547 80.1006 186.391 79.8868C186.192 79.7863 186.038 79.7922 185.815 79.7839C185.732 79.7806 185.649 79.7773 185.563 79.774C185.476 79.7709 185.389 79.7678 185.299 79.7646C185.211 79.7613 185.123 79.7579 185.033 79.7544C184.815 79.7461 184.598 79.7382 184.381 79.7305C184.381 79.1372 184.381 78.5439 184.381 77.9326C184.705 77.929 185.029 77.9259 185.354 77.924C185.464 77.9232 185.574 77.9222 185.683 77.9208C186.803 77.9072 187.907 77.9284 188.778 78.7338C189.222 79.2177 189.41 79.824 189.422 80.473C189.424 80.5553 189.427 80.6375 189.429 80.7222C189.433 80.8948 189.436 81.0674 189.439 81.2401C189.441 81.3223 189.444 81.4045 189.446 81.4892C189.449 81.6017 189.449 81.6017 189.451 81.7164C189.489 81.9527 189.552 82.0605 189.715 82.2318C189.984 82.3223 190.226 82.3237 190.506 82.326C190.562 82.3268 190.619 82.3276 190.677 82.3284C190.864 82.3308 191.051 82.3328 191.238 82.3347C191.368 82.3363 191.497 82.3379 191.627 82.3396C191.968 82.3439 192.31 82.3478 192.651 82.3516C192.999 82.3555 193.347 82.3598 193.695 82.3642C194.379 82.3726 195.062 82.3805 195.745 82.3881C195.741 82.0624 195.734 81.7367 195.726 81.411C195.725 81.3194 195.724 81.2277 195.723 81.1332C195.707 80.5822 195.659 80.1962 195.359 79.7305C194.998 79.5186 194.594 79.5487 194.199 79.6523C193.709 79.8938 193.709 79.8938 193.503 80.7466C192.712 80.7466 191.921 80.7466 191.107 80.7466C191.107 79.7798 191.248 79.2739 191.91 78.5784C192.758 77.8339 193.896 77.6494 194.987 77.6758C195.919 77.7464 196.915 77.943 197.601 78.6361C198.285 79.4863 198.416 80.3972 198.455 81.4631C198.468 81.891 198.468 81.891 198.676 82.2446C199.03 82.3413 199.366 82.3407 199.731 82.3344C199.804 82.3346 199.878 82.3349 199.953 82.3352C200.422 82.3367 200.422 82.3367 200.848 82.1536C200.972 81.9015 200.939 81.6253 200.941 81.3481C200.941 81.281 200.942 81.2139 200.943 81.1447C200.945 80.9223 200.947 80.6998 200.949 80.4773C200.951 80.3233 200.953 80.1693 200.954 80.0153C200.958 79.6095 200.962 79.2037 200.966 78.7979C200.97 78.3839 200.974 77.97 200.978 77.5561C200.987 76.7436 200.995 75.9311 201.002 75.1186Z" fill="#009379"/>
<path d="M0.463732 0C0.565779 0 0.667826 0 0.772966 0C0.782246 0.0592545 0.791527 0.118509 0.801088 0.179559C1.29869 3.31831 2.08285 6.14155 4.17454 8.59838C4.23593 8.67103 4.29732 8.74368 4.36056 8.81853C4.73936 9.25425 5.13488 9.63416 5.58633 9.99226C5.74738 10.1212 5.90223 10.2525 6.05682 10.3889C6.87082 11.0977 7.78735 11.6623 8.71913 12.1962C9.99823 12.9294 11.2477 13.7112 12.4724 14.5337C12.6026 14.6214 12.6026 14.6214 12.7558 14.6954C12.7558 14.747 12.7558 14.7986 12.7558 14.8518C12.8077 14.8688 12.8596 14.8858 12.9131 14.9034C13.2144 15.041 13.4561 15.23 13.7173 15.4331C13.7714 15.4747 13.8256 15.5163 13.8813 15.5591C14.3712 15.9367 14.8564 16.3203 15.3387 16.7077C15.4587 16.8037 15.5797 16.8984 15.7008 16.9931C15.8072 17.077 15.8072 17.077 15.9158 17.1626C15.9778 17.211 16.0397 17.2595 16.1036 17.3094C16.1469 17.3496 16.1901 17.3898 16.2347 17.4313C16.2347 17.4829 16.2347 17.5344 16.2347 17.5876C16.2789 17.6076 16.3232 17.6275 16.3687 17.6481C16.5626 17.7542 16.7088 17.8784 16.8725 18.0273C16.9544 18.1014 16.9544 18.1014 17.038 18.1769C17.079 18.2146 17.1201 18.2523 17.1624 18.2911C17.1351 18.5098 17.0966 18.5927 16.9356 18.7464C16.8717 18.7944 16.8078 18.8425 16.742 18.892C16.3863 19.168 16.0529 19.4594 15.7216 19.7647C15.5609 19.9124 15.3985 20.0574 15.2345 20.2013C14.9749 20.4304 14.7175 20.6619 14.4614 20.895C14.389 20.9608 14.3165 21.0266 14.2419 21.0944C14.067 21.2457 14.067 21.2457 13.9927 21.4178C13.9417 21.4178 13.8907 21.4178 13.8381 21.4178C13.8381 21.4694 13.8381 21.521 13.8381 21.5741C13.7127 21.7078 13.5834 21.8378 13.4516 21.965C13.4117 22.0117 13.3718 22.0585 13.3308 22.1066C13.2196 22.1995 13.2196 22.1995 12.9104 22.1995C12.8898 22.1566 12.8692 22.1138 12.848 22.0696C12.2814 20.8889 12.2814 20.8889 11.5962 19.7763C11.5479 19.7063 11.4997 19.6362 11.45 19.5641C10.8401 18.6985 10.1728 17.8414 9.41129 17.1061C9.2769 16.9623 9.2769 16.9623 9.2769 16.8059C9.21128 16.7783 9.21128 16.7783 9.14433 16.7501C8.92723 16.6266 8.78647 16.4755 8.61495 16.293C8.21542 15.8813 7.78962 15.5236 7.34419 15.1644C7.24712 15.0838 7.15019 15.0029 7.05338 14.922C6.56531 14.5149 6.07598 14.1179 5.55643 13.7525C4.78347 13.2062 4.08173 12.5802 3.41112 11.9107C3.37104 11.8709 3.33097 11.8311 3.28968 11.7901C3.01491 11.5098 3.01491 11.5098 3.01491 11.3342C2.96389 11.3342 2.91287 11.3342 2.8603 11.3342C1.4832 9.69729 0.618528 7.83731 0.193473 5.73801C0.168192 5.61597 0.140671 5.49438 0.11054 5.37347C-0.0241235 4.80038 -0.0210535 4.23011 -0.0160302 3.64483C-0.0145972 3.47144 -0.0144448 3.29809 -0.0144636 3.1247C-0.0115501 2.2784 -0.0115501 2.2784 0.0771892 2.18868C0.117431 1.95431 0.154202 1.72047 0.18832 1.48518C0.261346 0.984336 0.350144 0.493205 0.463732 0Z" fill="#015CCC"/>
<path d="M88.103 33.7422C88.138 33.7766 88.173 33.811 88.209 33.8464C88.209 33.8979 88.209 33.9495 88.209 34.0027C88.254 34.0084 88.2991 34.0142 88.3455 34.0201C88.5795 34.1024 88.6608 34.2288 88.8081 34.4277C88.8556 34.4905 88.903 34.5533 88.9519 34.6179C89.0594 34.7844 89.0594 34.7844 89.0594 34.9407C89.1104 34.9407 89.1614 34.9407 89.214 34.9407C89.2354 34.9962 89.2569 35.0517 89.2789 35.1089C89.3209 35.2167 89.3209 35.2167 89.3638 35.3266C89.4055 35.4341 89.4055 35.4341 89.448 35.5437C89.5077 35.7164 89.5077 35.7164 89.6005 35.8005C89.9113 37.0231 89.795 38.1994 89.1754 39.2991C89.07 39.4583 88.9632 39.5769 88.8275 39.7089C88.7764 39.7863 88.7254 39.8637 88.6728 39.9434C88.6218 39.9434 88.5708 39.9434 88.5182 39.9434C88.48 40.0595 88.48 40.0595 88.4409 40.1779C88.3899 40.1779 88.3389 40.1779 88.2863 40.1779C88.2863 40.2553 88.2863 40.3327 88.2863 40.4124C88.3973 40.4519 88.5085 40.4909 88.6197 40.5296C88.6816 40.5514 88.7435 40.5732 88.8072 40.5956C88.9889 40.6578 88.9889 40.6578 89.214 40.6469C89.214 40.6985 89.214 40.7501 89.214 40.8032C89.2794 40.8113 89.3448 40.8193 89.4121 40.8277C89.8173 40.9096 90.1751 41.0296 90.4509 41.3504C90.5657 41.4278 90.5657 41.4278 90.6829 41.5067C90.6829 41.5583 90.6829 41.6099 90.6829 41.6631C90.7403 41.6824 90.7977 41.7018 90.8568 41.7217C91.0912 41.8294 91.2058 41.9409 91.3786 42.1321C91.444 42.1966 91.5094 42.261 91.5767 42.3275C91.9971 42.7634 91.9971 42.7634 91.9971 42.9919C92.0992 43.0435 92.2012 43.0951 92.3063 43.1482C92.3063 43.2256 92.3063 43.303 92.3063 43.3827C92.3574 43.3827 92.4084 43.3827 92.461 43.3827C92.461 43.4601 92.461 43.5375 92.461 43.6172C92.512 43.6172 92.563 43.6172 92.6156 43.6172C92.6156 43.6688 92.6156 43.7204 92.6156 43.7736C92.6921 43.7994 92.7687 43.8252 92.8475 43.8517C92.8475 43.9291 92.8475 44.0065 92.8475 44.0862C92.7455 44.112 92.6434 44.1378 92.5383 44.1644C92.5383 44.1128 92.5383 44.0612 92.5383 44.0081C92.4842 43.9871 92.43 43.9662 92.3743 43.9446C92.1376 43.8459 91.9115 43.734 91.683 43.6172C91.604 43.5769 91.525 43.5366 91.4436 43.4951C91.3133 43.4284 91.1835 43.3605 91.0552 43.2899C90.9051 43.2104 90.9051 43.2104 90.6829 43.2264C90.6829 43.1748 90.6829 43.1232 90.6829 43.0701C90.6177 43.0586 90.6177 43.0586 90.5512 43.0469C90.1842 42.9808 89.8183 42.9114 89.4535 42.8337C89.3863 42.8196 89.3191 42.8055 89.2499 42.7909C89.1156 42.7626 88.9815 42.7337 88.8475 42.7044C88.4428 42.6194 88.0806 42.5953 87.6678 42.6011C87.4985 42.5863 87.3304 42.566 87.1617 42.5454C86.4679 42.4608 85.7816 42.4297 85.0828 42.4301C84.9585 42.43 84.9585 42.43 84.8317 42.4299C84.4765 42.4324 84.1502 42.4436 83.8024 42.5229C83.8024 42.4713 83.8024 42.4197 83.8024 42.3666C83.6876 42.4053 83.6876 42.4053 83.5705 42.4447C83.411 42.4617 83.2512 42.4752 83.0912 42.4866C82.9978 42.4934 82.9044 42.5002 82.8081 42.5072C82.7105 42.514 82.6129 42.5208 82.5123 42.5278C82.3646 42.5384 82.3646 42.5384 82.2138 42.5493C81.9703 42.5668 81.7267 42.5841 81.4832 42.6011C81.5068 42.4751 81.5309 42.3492 81.555 42.2234C81.5684 42.1533 81.5817 42.0831 81.5955 42.0109C81.6378 41.8194 81.6378 41.8194 81.7247 41.6093C81.8081 41.4189 81.8081 41.4189 81.7924 41.1599C81.7924 40.8748 81.8452 40.6761 81.947 40.4124C82.001 40.4077 82.055 40.4029 82.1107 40.398C82.181 40.3915 82.2514 40.3849 82.3239 40.3782C82.3938 40.3718 82.4638 40.3655 82.5359 40.359C82.7209 40.3444 82.7209 40.3444 82.8747 40.2561C82.8356 40.2136 82.7966 40.1712 82.7563 40.1275C82.7061 40.0716 82.6559 40.0157 82.6041 39.958C82.5539 39.9027 82.5037 39.8474 82.4519 39.7904C82.3335 39.6307 82.3335 39.6307 82.3335 39.3962C82.257 39.3704 82.1805 39.3446 82.1016 39.3181C82.1016 39.2407 82.1016 39.1633 82.1016 39.0836C82.0506 39.0836 81.9996 39.0836 81.947 39.0836C81.5726 38.2695 81.4186 37.4717 81.5605 36.5822C81.5605 36.5048 81.5605 36.4274 81.5605 36.3477C81.6218 36.1328 81.6858 35.9204 81.7537 35.7077C81.7722 35.6491 81.7906 35.5905 81.8096 35.5302C81.8551 35.3857 81.901 35.2413 81.947 35.097C81.998 35.097 82.0491 35.097 82.1016 35.097C82.1224 35.039 82.1431 34.9809 82.1644 34.9212C82.2526 34.7147 82.3408 34.5612 82.4882 34.3935C82.5392 34.3935 82.5902 34.3935 82.6428 34.3935C82.6683 34.3161 82.6938 34.2388 82.7201 34.159C82.7711 34.159 82.8221 34.159 82.8747 34.159C82.8747 34.1074 82.8747 34.0558 82.8747 34.0027C82.9991 33.8848 82.9991 33.8848 83.1646 33.7584C83.2184 33.7163 83.2722 33.6742 83.3277 33.6308C83.4932 33.5337 83.4932 33.5337 83.8024 33.5337C83.8024 33.4821 83.8024 33.4305 83.8024 33.3774C83.9045 33.3774 84.0065 33.3774 84.1116 33.3774C84.1116 33.3258 84.1116 33.2742 84.1116 33.221C84.2137 33.221 84.3157 33.221 84.4209 33.221C84.4209 33.1694 84.4209 33.1178 84.4209 33.0647C85.7069 32.8524 87.0174 32.9558 88.103 33.7422Z" fill="#009379"/>
<path d="M168.996 75.1186C169.889 75.1186 170.782 75.1186 171.702 75.1186C171.702 77.5175 171.702 79.9165 171.702 82.3881C173.922 82.3494 173.922 82.3494 176.186 82.31C176.11 82.1294 176.033 81.9488 175.954 81.7628C175.721 80.8632 175.87 79.8657 176.278 79.0416C176.677 78.3768 177.276 77.9987 178.007 77.801C179.085 77.5718 180.335 77.6084 181.291 78.2108C181.921 78.6784 182.3 79.2627 182.448 80.0431C182.543 81.1689 182.554 82.2824 181.897 83.2382C181.343 83.8964 180.563 84.2147 179.721 84.2854C179.437 84.2928 179.154 84.2932 178.87 84.2908C178.762 84.2907 178.653 84.2907 178.545 84.2909C178.254 84.2909 177.963 84.2896 177.671 84.2879C177.366 84.2864 177.06 84.2863 176.755 84.286C176.178 84.2853 175.601 84.2834 175.024 84.281C174.243 84.2779 173.462 84.2767 172.681 84.2753C171.453 84.2731 170.225 84.2684 168.996 84.2641C168.996 81.2461 168.996 78.2281 168.996 75.1186ZM178.66 79.7305C178.472 80.0159 178.464 80.2533 178.447 80.5854C178.444 80.6445 178.441 80.7036 178.438 80.7645C178.418 81.255 178.411 81.7665 178.583 82.2318C178.786 82.4292 178.877 82.4642 179.162 82.5054C179.443 82.4923 179.443 82.4923 179.617 82.2855C179.862 81.8757 179.836 81.5046 179.839 81.0398C179.841 80.9671 179.842 80.8945 179.844 80.8196C179.846 80.3688 179.804 80.0492 179.588 79.6523C179.239 79.3988 178.993 79.4975 178.66 79.7305Z" fill="#009379"/>
<path d="M20.7766 7.32816C21.7804 8.28701 22.3047 9.64599 22.3472 11.031C22.342 12.5368 21.8543 13.9257 20.796 15.0081C20.0043 15.7035 19.1925 15.9343 18.1639 15.8923C17.2846 15.8221 16.493 15.3469 15.8956 14.6939C14.8697 13.4204 14.6078 11.9979 14.6886 10.3962C14.8129 9.22623 15.4021 8.15269 16.2348 7.3477C16.2773 7.30225 16.3199 7.25681 16.3637 7.20999C17.6109 5.9739 19.5527 6.30069 20.7766 7.32816Z" fill="#015CCC"/>
<path d="M53.7294 40.3342C53.7549 40.3342 53.7804 40.3342 53.8067 40.3342C53.8088 40.445 53.8103 40.5557 53.8115 40.6664C53.8124 40.7281 53.8133 40.7898 53.8142 40.8533C53.807 41.0305 53.7783 41.1807 53.7294 41.3504C53.6784 41.3504 53.6273 41.3504 53.5748 41.3504C53.5628 41.4326 53.5628 41.4326 53.5506 41.5165C53.4377 41.9941 53.1736 42.3755 52.879 42.7574C52.828 42.7574 52.7769 42.7574 52.7244 42.7574C52.6981 42.8251 52.6981 42.8251 52.6712 42.8942C52.3963 43.3707 51.9464 43.4775 51.4524 43.6304C51.2626 43.6765 51.2626 43.6765 51.1782 43.7736C50.3387 43.8988 49.2947 43.9817 48.4742 43.7259C48.0836 43.6497 47.5841 43.8283 47.2373 44.0099C47.1307 44.0834 47.0282 44.1627 46.9262 44.2426C46.8672 44.2684 46.8082 44.2942 46.7475 44.3208C46.6829 44.3594 46.6829 44.3594 46.617 44.3989C46.6052 44.447 46.5935 44.495 46.5814 44.5446C46.5251 44.77 46.3902 44.9205 46.2558 45.1052C45.9196 45.6081 45.7648 46.1962 45.599 46.7732C45.5347 46.9784 45.5347 46.9784 45.4574 47.0566C45.3916 47.5647 45.4648 47.8978 45.7666 48.3073C46.1146 48.6019 46.4974 48.7272 46.9262 48.8544C46.9262 48.906 46.9262 48.9576 46.9262 49.0108C46.9789 49.014 47.0315 49.0172 47.0857 49.0205C47.4045 49.1166 47.6359 49.3049 47.8539 49.5579C47.9083 49.7299 47.9083 49.7299 47.9313 49.8706C47.9823 49.8706 48.0333 49.8706 48.0859 49.8706C48.2513 50.6194 48.3083 51.2446 47.9071 51.9225C47.8395 52.0214 47.7703 52.1192 47.6993 52.2156C47.6419 52.2946 47.5845 52.3736 47.5254 52.455C47.2663 52.7588 46.9467 53.0105 46.617 53.2318C46.566 53.2318 46.515 53.2318 46.4624 53.2318C46.4624 53.2834 46.4624 53.335 46.4624 53.3881C46.2597 53.5058 46.0567 53.623 45.8536 53.7399C45.767 53.7902 45.767 53.7902 45.6787 53.8416C45.6234 53.8733 45.5681 53.905 45.5111 53.9377C45.4346 53.982 45.4346 53.982 45.3566 54.0271C45.2255 54.0916 45.2255 54.0916 45.0708 54.0916C45.0708 54.1432 45.0708 54.1948 45.0708 54.248C44.9453 54.3004 44.8197 54.3525 44.694 54.4043C44.624 54.4333 44.554 54.4623 44.482 54.4922C44.2977 54.5606 44.2977 54.5606 44.1431 54.5606C44.1431 54.6122 44.1431 54.6638 44.1431 54.717C43.7222 54.8717 43.7222 54.8717 43.2927 55.0296C43.3695 54.7192 43.416 54.658 43.6337 54.4526C43.8479 54.2322 44.0286 53.9838 44.2156 53.7399C44.3863 53.5306 44.5715 53.345 44.7616 53.1536C44.91 52.9888 45.0536 52.8201 45.1965 52.6504C45.2518 52.5863 45.2518 52.5863 45.3082 52.5208C45.6746 52.0861 45.8849 51.7108 45.8675 51.1305C45.8356 50.9064 45.7424 50.7554 45.612 50.5741C45.612 50.5225 45.612 50.4709 45.612 50.4178C45.5674 50.3953 45.5229 50.3728 45.477 50.3497C45.3663 50.2936 45.2558 50.2373 45.1454 50.1805C45.0678 50.1408 45.0678 50.1408 44.9887 50.1002C44.9108 50.0602 44.9108 50.0602 44.8314 50.0193C44.6732 49.9398 44.6732 49.9398 44.4524 49.8706C44.4524 49.819 44.4524 49.7674 44.4524 49.7143C44.3551 49.6982 44.2578 49.682 44.1576 49.6654C43.7019 49.5636 43.2879 49.3598 42.9062 49.0889C42.8807 49.0116 42.8552 48.9342 42.8289 48.8544C42.7779 48.8544 42.7268 48.8544 42.6743 48.8544C42 47.7075 41.8877 46.6162 42.1962 45.3027C42.4948 44.394 43.0457 43.5894 43.6282 42.8441C43.7266 42.7178 43.822 42.5891 43.916 42.4594C44.0986 42.251 44.2928 42.1163 44.5297 41.9757C44.5807 41.9757 44.6317 41.9757 44.6843 41.9757C44.6843 41.9241 44.6843 41.8726 44.6843 41.8194C44.9139 41.742 45.1435 41.6646 45.3801 41.5849C45.3801 41.5333 45.3801 41.4817 45.3801 41.4286C46.7124 41.1194 47.9732 41.0754 49.2455 41.6631C49.4499 41.7468 49.6562 41.8228 49.864 41.8976C49.9202 41.9196 49.9764 41.9417 50.0343 41.9644C50.6592 42.1873 51.4288 42.2893 52.0503 42.0237C52.2663 41.8941 52.4519 41.7439 52.6471 41.5849C52.6981 41.5849 52.7491 41.5849 52.8017 41.5849C52.8226 41.5389 52.8435 41.4928 52.8651 41.4454C52.9552 41.2744 53.0515 41.1477 53.1786 41.0035C53.3239 40.8368 53.4628 40.6703 53.5989 40.4954C53.642 40.4422 53.685 40.389 53.7294 40.3342Z" fill="#009379"/>
<path d="M164.435 78.558C165.303 78.558 166.17 78.558 167.064 78.558C167.064 80.441 167.064 82.324 167.064 84.2642C165.069 84.2736 165.069 84.2736 164.216 84.2756C163.635 84.277 163.054 84.2787 162.473 84.2818C162.004 84.2844 161.535 84.2858 161.067 84.2864C160.888 84.2868 160.71 84.2877 160.531 84.2889C160.281 84.2907 160.03 84.2909 159.779 84.2908C159.67 84.292 159.67 84.292 159.558 84.2933C158.773 84.2897 158.139 84.0977 157.555 83.5606C157.05 83.0356 156.848 82.3453 156.851 81.6269C156.852 81.5517 156.852 81.4765 156.852 81.399C156.853 81.3047 156.853 81.2103 156.854 81.113C156.856 80.8116 156.857 80.5101 156.859 80.1995C157.624 80.1995 158.39 80.1995 159.178 80.1995C159.207 80.9127 159.207 80.9127 159.215 81.1348C159.232 81.4956 159.252 81.8231 159.41 82.1536C159.664 82.3257 159.887 82.3311 160.187 82.3349C160.282 82.3365 160.376 82.338 160.473 82.3396C160.626 82.341 160.626 82.341 160.781 82.3423C160.886 82.3438 160.992 82.3453 161.097 82.3469C161.374 82.3509 161.65 82.354 161.927 82.3569C162.209 82.3601 162.492 82.3641 162.774 82.368C163.328 82.3756 163.881 82.3818 164.435 82.3881C164.435 81.1242 164.435 79.8602 164.435 78.558Z" fill="#009379"/>
<path d="M149.051 75.1186C149.918 75.1186 150.786 75.1186 151.679 75.1186C151.679 78.1366 151.679 81.1547 151.679 84.2641C150.812 84.2641 149.945 84.2641 149.051 84.2641C149.051 81.2461 149.051 78.2281 149.051 75.1186Z" fill="#009379"/>
<path d="M41.6693 47.0566C41.7203 47.0566 41.7713 47.0566 41.8239 47.0566C41.8212 47.1227 41.8185 47.1888 41.8157 47.2569C41.7997 47.936 41.8346 48.3813 42.2297 48.9473C42.466 49.1916 42.7028 49.3688 42.9835 49.558C42.9378 49.8227 42.9251 49.8571 42.6936 50.0221C42.6107 50.0753 42.5278 50.1285 42.4423 50.1833C42.3722 50.2542 42.302 50.3252 42.2297 50.3983C42.1723 50.4563 42.1149 50.5143 42.0558 50.5741C42.0048 50.5741 41.9538 50.5741 41.9012 50.5741C41.8757 50.6515 41.8502 50.7289 41.8239 50.8086C41.5576 51.0431 41.5576 51.0431 41.36 51.0431C41.3345 51.1205 41.309 51.1979 41.2827 51.2776C41.1169 51.4263 41.1169 51.4263 40.9107 51.5854C40.6559 51.7829 40.4247 51.9836 40.2004 52.2156C40.116 52.2916 40.0307 52.3666 39.9443 52.4404C39.8742 52.5005 39.8742 52.5005 39.8027 52.5619C39.7317 52.6227 39.7317 52.6227 39.6592 52.6846C39.569 52.7627 39.4788 52.8409 39.3887 52.9191C39.3445 52.9572 39.3004 52.9953 39.2549 53.0346C39.159 53.118 39.0638 53.2024 38.9692 53.2874C38.9211 53.3303 38.8729 53.3732 38.8233 53.4175C38.7798 53.4568 38.7362 53.4961 38.6914 53.5365C38.5769 53.6226 38.5769 53.6226 38.4223 53.6226C38.384 53.7387 38.384 53.7387 38.345 53.8571C38.0787 54.0917 38.0787 54.0917 37.8811 54.0917C37.8429 54.2077 37.8429 54.2077 37.8038 54.3262C37.6353 54.4776 37.6353 54.4776 37.427 54.6388C37.2039 54.8124 36.9965 54.984 36.7988 55.186C36.6697 55.2967 36.5391 55.4057 36.4075 55.5133C36.3396 55.5692 36.2717 55.6252 36.2018 55.6828C36.0257 55.8113 36.0257 55.8113 35.8711 55.8113C35.8456 55.8887 35.8201 55.9661 35.7938 56.0458C35.6875 56.1777 35.6875 56.1777 35.5619 56.2803C35.4854 56.2803 35.4088 56.2803 35.33 56.2803C35.3155 56.0996 35.3155 56.0996 35.33 55.8895C35.4314 55.7722 35.4314 55.7722 35.5619 55.655C35.6395 55.5249 35.7167 55.3946 35.7938 55.2642C35.8939 55.1215 35.9954 54.9798 36.0982 54.8391C36.2586 54.6181 36.4165 54.3979 36.5669 54.1698C36.768 53.8648 36.9844 53.5719 37.2005 53.2776C37.3406 53.0864 37.3406 53.0864 37.4215 52.9027C37.4946 52.7628 37.4946 52.7628 37.7265 52.6065C37.8066 52.4779 37.8836 52.3474 37.9585 52.2156C38.112 51.9978 38.2695 51.7832 38.4271 51.5683C38.5654 51.3722 38.6868 51.1715 38.8088 50.965C38.8862 50.8868 38.9635 50.8086 39.0408 50.7305C39.0806 50.6611 39.1205 50.5918 39.1616 50.5204C39.1982 50.4607 39.2349 50.4011 39.2727 50.3396C39.3237 50.3396 39.3747 50.3396 39.4273 50.3396C39.4449 50.2848 39.4624 50.23 39.4805 50.1735C39.6037 49.9006 39.7767 49.7076 39.9685 49.4798C40.0673 49.3066 40.0673 49.3066 40.1231 49.1671C40.1741 49.1671 40.2251 49.1671 40.2777 49.1671C40.3064 49.0825 40.3064 49.0825 40.3357 48.9961C40.4431 48.7517 40.5732 48.5925 40.7416 48.3855C40.831 48.2591 40.9195 48.132 41.0073 48.0044C41.0537 47.9371 41.1002 47.8698 41.148 47.8004C41.232 47.6779 41.3154 47.555 41.3981 47.4316C41.4848 47.3039 41.5765 47.1798 41.6693 47.0566Z" fill="#009379"/>
<path d="M45.1482 40.5687C45.1482 40.6203 45.1482 40.6719 45.1482 40.7251C45.5309 40.7638 45.5309 40.7638 45.9213 40.8032C45.9595 40.9193 45.9595 40.9193 45.9986 41.0377C45.7957 41.1032 45.5928 41.1682 45.3898 41.2332C45.3321 41.2518 45.2744 41.2704 45.2149 41.2896C44.7792 41.4286 44.7792 41.4286 44.607 41.4286C44.607 41.4802 44.607 41.5318 44.607 41.5849C44.5289 41.6236 44.4508 41.6623 44.3703 41.7022C44.0641 41.8764 43.8704 42.1055 43.6543 42.3819C43.5141 42.5345 43.4106 42.6128 43.2155 42.6793C42.9642 42.5718 42.9642 42.5718 42.7516 42.4448C42.7516 42.3932 42.7516 42.3416 42.7516 42.2884C41.3804 42.2333 40.4402 42.2886 39.267 43.0594C39.1181 43.1483 39.1181 43.1483 38.9635 43.1483C38.9635 43.1998 38.9635 43.2514 38.9635 43.3046C38.8391 43.3723 38.8391 43.3723 38.7123 43.4414C38.4749 43.5785 38.2977 43.724 38.1131 43.9299C38.01 44.0341 37.907 44.1384 37.8039 44.2426C37.7274 44.2168 37.6508 44.191 37.572 44.1644C37.572 44.087 37.572 44.0097 37.572 43.9299C37.623 43.9299 37.674 43.9299 37.7266 43.9299C37.7388 43.8864 37.7511 43.8429 37.7637 43.798C37.9323 43.2407 38.1631 42.7765 38.577 42.3666C38.6595 42.2675 38.7416 42.1682 38.8234 42.0686C39.0977 41.7504 39.3922 41.5086 39.7366 41.2722C39.7868 41.2359 39.8371 41.1995 39.8888 41.162C40.2605 40.9062 40.6078 40.7945 41.0508 40.7251C41.0508 40.6735 41.0508 40.6219 41.0508 40.5687C42.371 40.2409 43.8171 40.3639 45.1482 40.5687Z" fill="#009379"/>
<path d="M48.6271 37.2075C49.0095 37.3809 49.2132 37.6112 49.4001 37.9892C49.5307 38.52 49.4929 38.9868 49.2455 39.4744C48.9784 39.8763 48.6314 40.2552 48.1529 40.3757C47.7547 40.4358 47.4578 40.3939 47.0809 40.2561C47.0809 40.2045 47.0809 40.1529 47.0809 40.0997C47.0346 40.0804 46.9884 40.061 46.9408 40.0411C46.6667 39.8827 46.5609 39.6948 46.4624 39.3962C46.4073 38.7231 46.4887 38.2313 46.9166 37.6961C47.3931 37.1327 47.9325 37.1341 48.6271 37.2075Z" fill="#009379"/>
<path d="M193.349 75.1186C194.191 75.1186 195.032 75.1186 195.9 75.1186C195.9 75.6345 195.9 76.1504 195.9 76.6819C195.058 76.6819 194.216 76.6819 193.349 76.6819C193.349 76.166 193.349 75.6501 193.349 75.1186Z" fill="#009379"/>
<path d="M128.487 85.4366C129.278 85.4366 130.068 85.4366 130.883 85.4366C130.883 85.9525 130.883 86.4685 130.883 87C130.092 87 129.302 87 128.487 87C128.487 86.4841 128.487 85.9682 128.487 85.4366Z" fill="#009379"/>
<path d="M123.771 85.4366C124.409 85.4366 125.047 85.4366 125.704 85.4366C125.704 85.9525 125.704 86.4685 125.704 87C125.066 87 124.428 87 123.771 87C123.771 86.4841 123.771 85.9682 123.771 85.4366Z" fill="#009379"/>
<path d="M121.374 85.4366C122.012 85.4366 122.65 85.4366 123.307 85.4366C123.307 85.9525 123.307 86.4685 123.307 87C122.669 87 122.032 87 121.374 87C121.374 86.4841 121.374 85.9682 121.374 85.4366Z" fill="#009379"/>
<path d="M161.961 76.213C162.599 76.213 163.237 76.213 163.894 76.213C163.894 76.7289 163.894 77.2448 163.894 77.7763C163.256 77.7763 162.618 77.7763 161.961 77.7763C161.961 77.2604 161.961 76.7445 161.961 76.213Z" fill="#009379"/>
<path d="M159.565 76.213C160.203 76.213 160.84 76.213 161.497 76.213C161.497 76.7289 161.497 77.2448 161.497 77.7763C160.86 77.7763 160.222 77.7763 159.565 77.7763C159.565 77.2604 159.565 76.7445 159.565 76.213Z" fill="#009379"/>
<path d="M114.107 75.1186C114.745 75.1186 115.383 75.1186 116.04 75.1186C116.04 75.6345 116.04 76.1504 116.04 76.6819C115.402 76.6819 114.764 76.6819 114.107 76.6819C114.107 76.166 114.107 75.6501 114.107 75.1186Z" fill="#009379"/>
<path d="M111.711 75.1186C112.349 75.1186 112.986 75.1186 113.644 75.1186C113.644 75.6345 113.644 76.1504 113.644 76.6819C113.006 76.6819 112.368 76.6819 111.711 76.6819C111.711 76.166 111.711 75.6501 111.711 75.1186Z" fill="#009379"/>
<path d="M33.3206 7.66037C33.3463 7.73776 33.3721 7.81514 33.3986 7.89487C33.3471 7.89487 33.2957 7.89487 33.2427 7.89487C33.2684 7.81749 33.2941 7.7401 33.3206 7.66037Z" fill="#015CCC"/>
<path d="M3.55621 7.66037C3.60766 7.66037 3.6591 7.66037 3.7121 7.66037C3.68638 7.73776 3.66066 7.81514 3.63416 7.89487C3.60843 7.81749 3.58271 7.7401 3.55621 7.66037Z" fill="#015CCC"/>
<path d="M18.2448 19.6981C18.2958 19.7239 18.3468 19.7497 18.3994 19.7763C18.3229 19.7763 18.2463 19.7763 18.1675 19.7763C18.193 19.7505 18.2185 19.7247 18.2448 19.6981Z" fill="#015CCC"/>
<path d="M26.3622 18.4474C26.5181 18.5256 26.5181 18.5256 26.5181 18.5256L26.3622 18.4474Z" fill="#015CCC"/>
<path d="M32.6242 12.8194C32.7801 12.8976 32.7801 12.8976 32.7801 12.8976L32.6242 12.8194Z" fill="#015CCC"/>
</g>
<defs>
<clipPath id="clip0_959_1890">
<rect width="216" height="87" fill="white"/>
</clipPath>
</defs>
</svg>
