<svg width="22" height="24" viewBox="0 0 22 24" fill="none" xmlns="http://www.w3.org/2000/svg">
<path d="M4.125 24C3.36875 24 2.72159 23.7391 2.1835 23.2173C1.64542 22.6956 1.37592 22.0676 1.375 21.3333V4C0.985421 4 0.659088 3.872 0.396005 3.616C0.132922 3.36 0.000921408 3.04356 4.74137e-06 2.66667C-0.000911925 2.28978 0.131088 1.97333 0.396005 1.71733C0.660921 1.46133 0.987254 1.33333 1.375 1.33333H6.875C6.875 0.955555 7.007 0.639111 7.271 0.384C7.535 0.128889 7.86133 0.000888889 8.25 0H13.75C14.1396 0 14.4664 0.128 14.7304 0.384C14.9944 0.64 15.1259 0.956444 15.125 1.33333H20.625C21.0146 1.33333 21.3414 1.46133 21.6054 1.71733C21.8694 1.97333 22.0009 2.28978 22 2.66667C21.9991 3.04356 21.8671 3.36044 21.604 3.61733C21.3409 3.87422 21.0146 4.00178 20.625 4V21.3333C20.625 22.0667 20.356 22.6947 19.8179 23.2173C19.2798 23.74 18.6322 24.0009 17.875 24H4.125ZM8.25 18.6667C8.63958 18.6667 8.96638 18.5387 9.23038 18.2827C9.49438 18.0267 9.62592 17.7102 9.625 17.3333V8C9.625 7.62222 9.493 7.30578 9.229 7.05067C8.965 6.79555 8.63867 6.66755 8.25 6.66667C7.86133 6.66578 7.535 6.79378 7.271 7.05067C7.007 7.30755 6.875 7.624 6.875 8V17.3333C6.875 17.7111 7.007 18.028 7.271 18.284C7.535 18.54 7.86133 18.6676 8.25 18.6667ZM13.75 18.6667C14.1396 18.6667 14.4664 18.5387 14.7304 18.2827C14.9944 18.0267 15.1259 17.7102 15.125 17.3333V8C15.125 7.62222 14.993 7.30578 14.729 7.05067C14.465 6.79555 14.1387 6.66755 13.75 6.66667C13.3613 6.66578 13.035 6.79378 12.771 7.05067C12.507 7.30755 12.375 7.624 12.375 8V17.3333C12.375 17.7111 12.507 18.028 12.771 18.284C13.035 18.54 13.3613 18.6676 13.75 18.6667Z" fill="#015CCC"/>
</svg>
