<svg width="20" height="20" viewBox="0 0 20 20" fill="none" xmlns="http://www.w3.org/2000/svg">
<path d="M17 7V14.5C17.0001 15.1347 16.7588 15.7457 16.325 16.209C15.8912 16.6724 15.2974 16.9534 14.664 16.995L14.5 17H5.5C4.86528 17.0001 4.25429 16.7588 3.79095 16.325C3.32762 15.8912 3.04664 15.2974 3.005 14.664L3 14.5V7H17ZM11.516 8.234C10.9853 8.234 10.5637 8.376 10.251 8.66C9.93767 8.944 9.78133 9.328 9.782 9.812C9.782 10.0913 9.853 10.3397 9.995 10.557C10.137 10.7737 10.3303 10.9447 10.575 11.07C10.2837 11.2007 10.057 11.387 9.895 11.629C9.73375 11.8718 9.64942 12.1576 9.653 12.449C9.653 12.9463 9.823 13.3423 10.163 13.637C10.503 13.9317 10.9553 14.0787 11.52 14.078C12.0827 14.078 12.5333 13.9313 12.872 13.638C13.2107 13.346 13.38 12.9497 13.38 12.449C13.38 12.147 13.3 11.8763 13.14 11.637C12.9696 11.3869 12.7317 11.1903 12.454 11.07C12.6911 10.9536 12.8932 10.7766 13.04 10.557C13.1833 10.339 13.255 10.0907 13.255 9.812C13.255 9.328 13.0983 8.944 12.785 8.66C12.473 8.376 12.05 8.234 11.516 8.234ZM8.496 8.293H8.375L6.156 9.109V9.91L7.551 9.434V14H8.496V8.293ZM11.512 11.461C11.7887 11.461 12.0107 11.5477 12.178 11.721C12.3453 11.8943 12.4293 12.1213 12.43 12.402C12.43 12.692 12.35 12.9173 12.19 13.078C12.03 13.24 11.8067 13.3207 11.52 13.32C11.234 13.32 11.0097 13.2367 10.847 13.07C10.6843 12.9033 10.6027 12.6807 10.602 12.402C10.602 12.1187 10.6847 11.891 10.85 11.719C11.0153 11.547 11.236 11.461 11.512 11.461ZM11.516 8.996C11.7587 8.996 11.9517 9.076 12.095 9.236C12.2383 9.396 12.3097 9.6 12.309 9.848C12.309 10.108 12.2383 10.3147 12.097 10.468C11.955 10.622 11.7627 10.699 11.52 10.699C11.278 10.699 11.086 10.6223 10.944 10.469C10.802 10.3157 10.731 10.1087 10.731 9.848C10.731 9.58467 10.8013 9.377 10.942 9.225C11.082 9.07167 11.2733 8.99533 11.516 8.996ZM14.5 3C15.1347 2.9999 15.7457 3.24123 16.209 3.67504C16.6724 4.10885 16.9534 4.70265 16.995 5.336L17 5.5V6H3V5.5C2.9999 4.86528 3.24123 4.25429 3.67504 3.79095C4.10885 3.32762 4.70265 3.04664 5.336 3.005L5.5 3H14.5Z" fill="#015CCC"/>
</svg>
