<svg width="26" height="25" viewBox="0 0 26 25" fill="none" xmlns="http://www.w3.org/2000/svg">
<g filter="url(#filter0_d_314_9496)">
<path d="M6.33341 16.6667C5.87508 16.6667 5.48286 16.5036 5.15675 16.1775C4.83064 15.8514 4.6673 15.4589 4.66675 15V11.6667H8.83341V12.5H10.5001V11.6667H15.5001V12.5H17.1667V11.6667H21.3334V15C21.3334 15.4583 21.1704 15.8508 20.8442 16.1775C20.5181 16.5042 20.1256 16.6672 19.6667 16.6667H6.33341ZM5.02091 10L6.75008 6C6.87508 5.69445 7.07647 5.45139 7.35425 5.27083C7.63203 5.09028 7.93064 5 8.25008 5H8.83341V4.16667C8.83341 3.70833 8.99675 3.31583 9.32341 2.98917C9.65008 2.6625 10.0423 2.49945 10.5001 2.5H15.5001C15.9584 2.5 16.3509 2.66333 16.6776 2.99C17.0042 3.31667 17.1673 3.70889 17.1667 4.16667V5H17.7501C18.0695 5 18.3681 5.09028 18.6459 5.27083C18.9237 5.45139 19.1251 5.69445 19.2501 6L20.9792 10H17.1667V9.16667H15.5001V10H10.5001V9.16667H8.83341V10H5.02091ZM10.5001 5H15.5001V4.16667H10.5001V5Z" fill="#015CCC"/>
</g>
<defs>
<filter id="filter0_d_314_9496" x="-1" y="0" width="28" height="28" filterUnits="userSpaceOnUse" color-interpolation-filters="sRGB">
<feFlood flood-opacity="0" result="BackgroundImageFix"/>
<feColorMatrix in="SourceAlpha" type="matrix" values="0 0 0 0 0 0 0 0 0 0 0 0 0 0 0 0 0 0 127 0" result="hardAlpha"/>
<feOffset dy="4"/>
<feGaussianBlur stdDeviation="2"/>
<feComposite in2="hardAlpha" operator="out"/>
<feColorMatrix type="matrix" values="0 0 0 0 0 0 0 0 0 0 0 0 0 0 0 0 0 0 0.25 0"/>
<feBlend mode="normal" in2="BackgroundImageFix" result="effect1_dropShadow_314_9496"/>
<feBlend mode="normal" in="SourceGraphic" in2="effect1_dropShadow_314_9496" result="shape"/>
</filter>
</defs>
</svg>
