<svg width="20" height="20" viewBox="0 0 20 20" fill="none" xmlns="http://www.w3.org/2000/svg">
<path d="M3.33341 16.6667C2.87508 16.6667 2.48286 16.5036 2.15675 16.1775C1.83064 15.8514 1.6673 15.4589 1.66675 15V11.6667H5.83341V12.5H7.50008V11.6667H12.5001V12.5H14.1667V11.6667H18.3334V15C18.3334 15.4583 18.1704 15.8508 17.8442 16.1775C17.5181 16.5042 17.1256 16.6672 16.6667 16.6667H3.33341ZM2.02091 10L3.75008 6C3.87508 5.69445 4.07647 5.45139 4.35425 5.27083C4.63203 5.09028 4.93064 5 5.25008 5H5.83341V4.16667C5.83341 3.70833 5.99675 3.31583 6.32341 2.98917C6.65008 2.6625 7.0423 2.49945 7.50008 2.5H12.5001C12.9584 2.5 13.3509 2.66333 13.6776 2.99C14.0042 3.31667 14.1673 3.70889 14.1667 4.16667V5H14.7501C15.0695 5 15.3681 5.09028 15.6459 5.27083C15.9237 5.45139 16.1251 5.69445 16.2501 6L17.9792 10H14.1667V9.16667H12.5001V10H7.50008V9.16667H5.83341V10H2.02091ZM7.50008 5H12.5001V4.16667H7.50008V5Z" fill="#3499C5"/>
</svg>
