<svg width="18" height="18" viewBox="0 0 18 18" fill="none" xmlns="http://www.w3.org/2000/svg">
<path fill-rule="evenodd" clip-rule="evenodd" d="M17.5 11.432V6.568C17.5 4.274 17.5 3.128 16.778 2.415C16.123 1.768 15.104 1.709 13.182 1.703C13.283 2.378 13.304 3.183 13.31 4.131C13.31 4.22747 13.291 4.323 13.254 4.41212C13.2171 4.50124 13.1629 4.5822 13.0947 4.65037C13.0264 4.71854 12.9454 4.77259 12.8562 4.80941C12.767 4.84624 12.6715 4.86513 12.575 4.865C12.4785 4.86619 12.3827 4.84835 12.293 4.81251C12.2034 4.77667 12.1217 4.72352 12.0526 4.6561C11.9835 4.58869 11.9284 4.50832 11.8904 4.4196C11.8524 4.33087 11.8322 4.23552 11.831 4.139C11.825 3.075 11.798 2.321 11.691 1.749C11.588 1.197 11.424 0.879001 11.184 0.641001C10.911 0.371001 10.528 0.196 9.804 0.101C9.06 0.000999831 8.074 0 6.659 0H5.674C4.259 0 3.273 0.00200038 2.528 0.1C1.805 0.196 1.422 0.372001 1.15 0.641001C0.877 0.911001 0.698999 1.289 0.601999 2.003C0.501999 2.737 0.5 3.712 0.5 5.108V12.892C0.5 14.289 0.501999 15.262 0.601999 15.997C0.698999 16.711 0.877 17.09 1.149 17.359C1.422 17.629 1.805 17.804 2.529 17.899C3.272 18 4.258 18 5.673 18H6.658C8.073 18 9.059 17.998 9.804 17.9C10.527 17.804 10.91 17.628 11.183 17.359C11.423 17.122 11.587 16.803 11.69 16.251C11.797 15.679 11.824 14.925 11.83 13.861C11.8312 13.7645 11.8514 13.6691 11.8894 13.5804C11.9274 13.4917 11.9825 13.4113 12.0516 13.3439C12.1207 13.2765 12.2024 13.2233 12.292 13.1875C12.3817 13.1516 12.4775 13.1338 12.574 13.135C12.6705 13.1349 12.766 13.1538 12.8552 13.1906C12.9444 13.2274 13.0254 13.2815 13.0937 13.3496C13.1619 13.4178 13.2161 13.4988 13.253 13.5879C13.29 13.677 13.309 13.7725 13.309 13.869C13.303 14.817 13.282 15.622 13.181 16.297C15.103 16.291 16.121 16.232 16.777 15.585C17.499 14.872 17.5 13.725 17.5 11.432ZM15.065 8.484C15.1336 8.5513 15.188 8.6316 15.2252 8.7202C15.2624 8.8088 15.2816 8.90392 15.2816 9C15.2816 9.09608 15.2624 9.1912 15.2252 9.2798C15.188 9.3684 15.1336 9.4487 15.065 9.516L13.095 11.462C12.9555 11.5992 12.7677 11.676 12.572 11.676C12.3763 11.676 12.1885 11.5992 12.049 11.462C11.9804 11.3947 11.926 11.3144 11.8888 11.2258C11.8516 11.1372 11.8324 11.0421 11.8324 10.946C11.8324 10.8499 11.8516 10.7548 11.8888 10.6662C11.926 10.5776 11.9804 10.4973 12.049 10.43L12.759 9.73H5.673C5.265 9.73 4.933 9.403 4.933 9C4.933 8.597 5.265 8.27 5.673 8.27H12.76L12.05 7.57C11.9814 7.5027 11.927 7.4224 11.8898 7.3338C11.8526 7.2452 11.8334 7.15008 11.8334 7.054C11.8334 6.95792 11.8526 6.8628 11.8898 6.7742C11.927 6.6856 11.9814 6.6053 12.05 6.538C12.1895 6.40083 12.3773 6.32397 12.573 6.32397C12.7687 6.32397 12.9565 6.40083 13.096 6.538L15.065 8.484Z" fill="#015CCC"/>
</svg>
